<svg width="18" height="18" viewBox="0 0 18 18" fill="none" xmlns="http://www.w3.org/2000/svg">
<path d="M5.76098 6.2998L4.50098 7.5598L9.00098 12.0598L18.001 3.0598L16.741 1.7998L9.00098 9.53981L5.76098 6.2998Z" fill="#00CDE5"/>
<path d="M8.10098 15.2999C4.59098 15.2999 1.80098 12.5099 1.80098 8.9999C1.80098 5.4899 4.59098 2.6999 8.10098 2.6999C9.18098 2.6999 10.261 2.9699 11.251 3.5099L12.151 1.9799C10.891 1.2599 9.54098 0.899902 8.10098 0.899902C3.60098 0.899902 0.000976562 4.4999 0.000976562 8.9999C0.000976562 13.4999 3.60098 17.0999 8.10098 17.0999C12.601 17.0999 16.201 13.4999 16.201 8.9999H14.401C14.401 12.5099 11.611 15.2999 8.10098 15.2999Z" fill="#00CDE5"/>
</svg>
