<svg width="242" height="163" viewBox="0 0 242 163" fill="none" xmlns="http://www.w3.org/2000/svg">
<path d="M239.497 129.894L207.961 161.432H4L35.5698 129.894L4 98.356H207.961L239.497 129.894Z" stroke="#00CDE5" stroke-width="3" stroke-miterlimit="10"/>
<path d="M121.987 114.758C159.535 114.758 189.974 121.538 189.974 129.894C189.974 138.249 159.535 145.029 121.987 145.029C84.4392 145.029 54 138.249 54 129.894C54.0171 121.538 84.4563 114.758 121.987 114.758Z" fill="#F6F6F8"/>
<path d="M121.967 129.89C157.856 129.89 186.934 100.826 186.934 64.9368C186.951 29.0808 157.856 0 121.967 0C86.0944 0 57 29.0808 57 64.9368C57 100.826 86.0944 129.89 121.967 129.89Z" fill="#00CDE5"/>
<path d="M147.529 47.6828C147.486 47.6449 147.455 47.6071 147.405 47.5756L147.006 47.2855C146.8 47.1278 146.589 46.9765 146.37 46.8125C146.339 46.7936 146.314 46.781 146.283 46.7621L123.914 30.5558C123.809 30.4802 123.69 30.4171 123.566 30.3729C121.684 29.6793 119.609 29.9631 118.008 31.1423L95.7884 47.4557C94.9534 47.9665 94.2306 48.4836 93.6449 49.0638C92.6106 50.1105 92.0125 51.3654 92.0125 53.1815L92 86.7922C92 89.6488 94.293 91.9694 97.1155 91.9694L145.878 91.9883C148.695 91.9883 150.994 89.6677 150.994 86.8174L151.006 53.2068C151.006 50.8105 149.716 49.3727 147.536 47.6828H147.529ZM145.355 88.8668H97.6576L119.758 71.2228C120.257 70.8192 120.861 70.6112 121.509 70.6112C121.939 70.6112 122.407 70.794 122.812 71.1156L145.349 88.8668H145.355ZM94.9597 87.2777C94.9285 87.1201 94.9036 86.9625 94.9036 86.7985L94.916 58.8443L115.098 71.1976L94.9597 87.2777ZM148.084 86.8174C148.084 86.9688 148.065 87.1138 148.04 87.2588L147.455 86.7922L127.859 71.3552L148.09 58.8569L148.078 86.8174H148.084ZM119.715 33.5133C120.475 32.9584 121.484 32.7944 122.394 33.0719L145.28 49.6439C147.573 51.3717 148.09 52.0654 148.09 53.2004V55.4012L125.404 69.4193L124.6 68.7824C123.69 68.0635 122.6 67.6663 121.528 67.6537C121.528 67.6537 121.491 67.6537 121.484 67.6537C120.213 67.6537 118.955 68.0951 117.952 68.9022L117.534 69.2365L94.9223 55.4012V53.1878C94.9223 52.4122 95.022 51.8447 95.67 51.1825L119.715 33.5133Z" fill="white"/>
<path d="M120.457 65.2385C122.999 65.2385 124.974 64.7908 126.862 63.7819C126.943 63.7377 126.974 63.6431 126.943 63.5612L126.376 62.0162C126.357 61.9658 126.32 61.9279 126.27 61.909C126.22 61.8901 126.164 61.8964 126.12 61.9216C124.694 62.7288 122.874 63.1576 120.843 63.1576C115.484 63.1576 111.889 59.3299 111.889 53.6293C111.889 46.8126 116.301 41.8687 122.37 41.8687C127.566 41.8687 130.794 45.2298 130.794 50.6403C130.794 54.5941 128.912 57.0408 127.174 57.0408H127.142C126.812 57.0282 126.563 56.9147 126.382 56.6814C125.952 56.1328 125.902 54.9725 126.245 53.2257L127.454 46.718C127.466 46.636 127.429 46.554 127.354 46.5225C126.301 46.0307 124.893 45.7532 123.479 45.7532C118.737 45.7532 114.88 49.6566 114.88 54.4554C114.88 57.5516 116.899 59.1659 118.899 59.1659C120.899 59.1659 122.613 58.2011 123.871 56.2274C123.902 57.0976 124.17 57.8228 124.656 58.3398C125.161 58.8759 125.877 59.1659 126.681 59.1659C129.915 59.1659 133.186 56.1643 133.186 50.4259C133.186 44.2019 128.862 39.8508 122.669 39.8508C115.173 39.8508 109.521 45.8667 109.521 53.8437C109.521 61.3289 115.03 65.2449 120.469 65.2449L120.457 65.2385ZM123.909 52.1159C123.516 54.3545 121.653 56.8579 119.746 56.8579C118.388 56.8579 117.578 55.9058 117.578 54.304C117.578 50.8925 120.083 48.0107 123.049 48.0107C123.603 48.0107 124.133 48.0801 124.619 48.2125L123.902 52.1159H123.909Z" fill="white"/>
</svg>
