<svg version="1.2" xmlns="http://www.w3.org/2000/svg" viewBox="0 0 10 7" width="10" height="7">
	<title>стрелка 1 белая</title>
	<style>
		.s0 { fill: #ffffff } 
	</style>
	<path class="s0" d="m10 1.72q0-0.22-0.12-0.39-0.12-0.18-0.31-0.25-0.2-0.08-0.41-0.02-0.2 0.05-0.34 0.22l-3.5 4.08-3.49-4.08q-0.08-0.12-0.2-0.19-0.12-0.06-0.26-0.08-0.14-0.02-0.27 0.02-0.14 0.05-0.24 0.14-0.11 0.09-0.17 0.21-0.06 0.13-0.06 0.27-0.01 0.13 0.04 0.26 0.05 0.13 0.15 0.23l4 4.67q0.09 0.11 0.23 0.18 0.13 0.06 0.27 0.06 0.15 0 0.28-0.06 0.14-0.07 0.23-0.18l4-4.67q0.16-0.18 0.17-0.42z"/>
</svg>