<svg width="12" height="8" viewBox="0 0 12 8" fill="none" xmlns="http://www.w3.org/2000/svg">
<path d="M12.0057 0.909833C12.0096 0.732476 11.9581 0.55831 11.8585 0.411549C11.7588 0.264788 11.6158 0.152724 11.4496 0.0909381C11.2833 0.029152 11.1019 0.0207136 10.9306 0.0667958C10.7593 0.112878 10.6066 0.211191 10.4938 0.348067L6.01966 5.57065L1.54712 0.348066C1.47753 0.253383 1.38918 0.174087 1.28753 0.115146C1.18587 0.0562049 1.07311 0.0188879 0.956367 0.00553147C0.839622 -0.00782493 0.721402 0.00306734 0.609062 0.037526C0.496722 0.0719847 0.392673 0.129267 0.303496 0.205787C0.21432 0.282307 0.141982 0.376415 0.0908603 0.482218C0.0397386 0.588021 0.0110254 0.703241 0.00649544 0.82066C0.00196453 0.938078 0.0216608 1.05517 0.0644779 1.1646C0.107296 1.27402 0.172244 1.37343 0.255259 1.4566L5.37122 7.43598C5.45135 7.52988 5.55081 7.60528 5.6629 7.65698C5.775 7.70869 5.897 7.73546 6.02045 7.73546C6.14389 7.73546 6.2659 7.70869 6.37799 7.65698C6.49008 7.60528 6.58964 7.52988 6.66977 7.43598L11.7907 1.4566C11.9248 1.30555 12.0009 1.11181 12.0057 0.909833Z" fill="#2B2B5E"/>
</svg>
