<svg width="50" height="196" viewBox="0 0 50 196" fill="none" xmlns="http://www.w3.org/2000/svg">
<g clip-path="url(#clip0_1_698)">
<g clip-path="url(#clip1_1_698)">
<circle cx="1.50098" cy="1.5" r="1.5" fill="#D2D6DB"/>
<circle cx="10.501" cy="1.5" r="1.5" fill="#D2D6DB"/>
<circle cx="19.501" cy="1.5" r="1.5" fill="#D2D6DB"/>
<circle cx="28.501" cy="1.5" r="1.5" fill="#D2D6DB"/>
<circle cx="37.501" cy="1.5" r="1.5" fill="#D2D6DB"/>
<circle cx="46.501" cy="1.5" r="1.5" fill="#D2D6DB"/>
</g>
<g clip-path="url(#clip2_1_698)">
<circle cx="1.50098" cy="10.5" r="1.5" fill="#D2D6DB"/>
<circle cx="10.501" cy="10.5" r="1.5" fill="#D2D6DB"/>
<circle cx="19.501" cy="10.5" r="1.5" fill="#D2D6DB"/>
<circle cx="28.501" cy="10.5" r="1.5" fill="#D2D6DB"/>
<circle cx="37.501" cy="10.5" r="1.5" fill="#D2D6DB"/>
<circle cx="46.501" cy="10.5" r="1.5" fill="#D2D6DB"/>
</g>
<g clip-path="url(#clip3_1_698)">
<circle cx="1.50098" cy="19.5" r="1.5" fill="#D2D6DB"/>
<circle cx="10.501" cy="19.5" r="1.5" fill="#D2D6DB"/>
<circle cx="19.501" cy="19.5" r="1.5" fill="#D2D6DB"/>
<circle cx="28.501" cy="19.5" r="1.5" fill="#D2D6DB"/>
<circle cx="37.501" cy="19.5" r="1.5" fill="#D2D6DB"/>
<circle cx="46.501" cy="19.5" r="1.5" fill="#D2D6DB"/>
</g>
<g clip-path="url(#clip4_1_698)">
<circle cx="1.50098" cy="28.5" r="1.5" fill="#D2D6DB"/>
<circle cx="10.501" cy="28.5" r="1.5" fill="#D2D6DB"/>
<circle cx="19.501" cy="28.5" r="1.5" fill="#D2D6DB"/>
<circle cx="28.501" cy="28.5" r="1.5" fill="#D2D6DB"/>
<circle cx="37.501" cy="28.5" r="1.5" fill="#D2D6DB"/>
<circle cx="46.501" cy="28.5" r="1.5" fill="#D2D6DB"/>
</g>
<g clip-path="url(#clip5_1_698)">
<circle cx="1.50098" cy="37.5" r="1.5" fill="#D2D6DB"/>
<circle cx="10.501" cy="37.5" r="1.5" fill="#D2D6DB"/>
<circle cx="19.501" cy="37.5" r="1.5" fill="#D2D6DB"/>
<circle cx="28.501" cy="37.5" r="1.5" fill="#D2D6DB"/>
<circle cx="37.501" cy="37.5" r="1.5" fill="#D2D6DB"/>
<circle cx="46.501" cy="37.5" r="1.5" fill="#D2D6DB"/>
</g>
<g clip-path="url(#clip6_1_698)">
<circle cx="1.50098" cy="46.5" r="1.5" fill="#D2D6DB"/>
<circle cx="10.501" cy="46.5" r="1.5" fill="#D2D6DB"/>
<circle cx="19.501" cy="46.5" r="1.5" fill="#D2D6DB"/>
<circle cx="28.501" cy="46.5" r="1.5" fill="#D2D6DB"/>
<circle cx="37.501" cy="46.5" r="1.5" fill="#D2D6DB"/>
<circle cx="46.501" cy="46.5" r="1.5" fill="#D2D6DB"/>
</g>
<g clip-path="url(#clip7_1_698)">
<circle cx="1.50098" cy="55.5" r="1.5" fill="#D2D6DB"/>
<circle cx="10.501" cy="55.5" r="1.5" fill="#D2D6DB"/>
<circle cx="19.501" cy="55.5" r="1.5" fill="#D2D6DB"/>
<circle cx="28.501" cy="55.5" r="1.5" fill="#D2D6DB"/>
<circle cx="37.501" cy="55.5" r="1.5" fill="#D2D6DB"/>
<circle cx="46.501" cy="55.5" r="1.5" fill="#D2D6DB"/>
</g>
<g clip-path="url(#clip8_1_698)">
<circle cx="1.50098" cy="64.5" r="1.5" fill="#D2D6DB"/>
<circle cx="10.501" cy="64.5" r="1.5" fill="#D2D6DB"/>
<circle cx="19.501" cy="64.5" r="1.5" fill="#D2D6DB"/>
<circle cx="28.501" cy="64.5" r="1.5" fill="#D2D6DB"/>
<circle cx="37.501" cy="64.5" r="1.5" fill="#D2D6DB"/>
<circle cx="46.501" cy="64.5" r="1.5" fill="#D2D6DB"/>
</g>
<g clip-path="url(#clip9_1_698)">
<circle cx="1.50098" cy="73.5" r="1.5" fill="#D2D6DB"/>
<circle cx="10.501" cy="73.5" r="1.5" fill="#D2D6DB"/>
<circle cx="19.501" cy="73.5" r="1.5" fill="#D2D6DB"/>
<circle cx="28.501" cy="73.5" r="1.5" fill="#D2D6DB"/>
<circle cx="37.501" cy="73.5" r="1.5" fill="#D2D6DB"/>
<circle cx="46.501" cy="73.5" r="1.5" fill="#D2D6DB"/>
</g>
<g clip-path="url(#clip10_1_698)">
<circle cx="1.50098" cy="82.5" r="1.5" fill="#D2D6DB"/>
<circle cx="10.501" cy="82.5" r="1.5" fill="#D2D6DB"/>
<circle cx="19.501" cy="82.5" r="1.5" fill="#D2D6DB"/>
<circle cx="28.501" cy="82.5" r="1.5" fill="#D2D6DB"/>
<circle cx="37.501" cy="82.5" r="1.5" fill="#D2D6DB"/>
<circle cx="46.501" cy="82.5" r="1.5" fill="#D2D6DB"/>
</g>
<g clip-path="url(#clip11_1_698)">
<circle cx="1.50098" cy="91.5" r="1.5" fill="#D2D6DB"/>
<circle cx="10.501" cy="91.5" r="1.5" fill="#D2D6DB"/>
<circle cx="19.501" cy="91.5" r="1.5" fill="#D2D6DB"/>
<circle cx="28.501" cy="91.5" r="1.5" fill="#D2D6DB"/>
<circle cx="37.501" cy="91.5" r="1.5" fill="#D2D6DB"/>
<circle cx="46.501" cy="91.5" r="1.5" fill="#D2D6DB"/>
</g>
<g clip-path="url(#clip12_1_698)">
<circle cx="1.50098" cy="100.5" r="1.5" fill="#D2D6DB"/>
<circle cx="10.501" cy="100.5" r="1.5" fill="#D2D6DB"/>
<circle cx="19.501" cy="100.5" r="1.5" fill="#D2D6DB"/>
<circle cx="28.501" cy="100.5" r="1.5" fill="#D2D6DB"/>
<circle cx="37.501" cy="100.5" r="1.5" fill="#D2D6DB"/>
<circle cx="46.501" cy="100.5" r="1.5" fill="#D2D6DB"/>
</g>
<g clip-path="url(#clip13_1_698)">
<circle cx="1.50098" cy="109.5" r="1.5" fill="#D2D6DB"/>
<circle cx="10.501" cy="109.5" r="1.5" fill="#D2D6DB"/>
<circle cx="19.501" cy="109.5" r="1.5" fill="#D2D6DB"/>
<circle cx="28.501" cy="109.5" r="1.5" fill="#D2D6DB"/>
<circle cx="37.501" cy="109.5" r="1.5" fill="#D2D6DB"/>
<circle cx="46.501" cy="109.5" r="1.5" fill="#D2D6DB"/>
</g>
<g clip-path="url(#clip14_1_698)">
<circle cx="1.50098" cy="118.5" r="1.5" fill="#D2D6DB"/>
<circle cx="10.501" cy="118.5" r="1.5" fill="#D2D6DB"/>
<circle cx="19.501" cy="118.5" r="1.5" fill="#D2D6DB"/>
<circle cx="28.501" cy="118.5" r="1.5" fill="#D2D6DB"/>
<circle cx="37.501" cy="118.5" r="1.5" fill="#D2D6DB"/>
<circle cx="46.501" cy="118.5" r="1.5" fill="#D2D6DB"/>
</g>
<g clip-path="url(#clip15_1_698)">
<circle cx="1.50098" cy="127.5" r="1.5" fill="#D2D6DB"/>
<circle cx="10.501" cy="127.5" r="1.5" fill="#D2D6DB"/>
<circle cx="19.501" cy="127.5" r="1.5" fill="#D2D6DB"/>
<circle cx="28.501" cy="127.5" r="1.5" fill="#D2D6DB"/>
<circle cx="37.501" cy="127.5" r="1.5" fill="#D2D6DB"/>
<circle cx="46.501" cy="127.5" r="1.5" fill="#D2D6DB"/>
</g>
<g clip-path="url(#clip16_1_698)">
<circle cx="1.50098" cy="136.5" r="1.5" fill="#D2D6DB"/>
<circle cx="10.501" cy="136.5" r="1.5" fill="#D2D6DB"/>
<circle cx="19.501" cy="136.5" r="1.5" fill="#D2D6DB"/>
<circle cx="28.501" cy="136.5" r="1.5" fill="#D2D6DB"/>
<circle cx="37.501" cy="136.5" r="1.5" fill="#D2D6DB"/>
<circle cx="46.501" cy="136.5" r="1.5" fill="#D2D6DB"/>
</g>
<g clip-path="url(#clip17_1_698)">
<circle cx="1.50098" cy="145.5" r="1.5" fill="#D2D6DB"/>
<circle cx="10.501" cy="145.5" r="1.5" fill="#D2D6DB"/>
<circle cx="19.501" cy="145.5" r="1.5" fill="#D2D6DB"/>
<circle cx="28.501" cy="145.5" r="1.5" fill="#D2D6DB"/>
<circle cx="37.501" cy="145.5" r="1.5" fill="#D2D6DB"/>
<circle cx="46.501" cy="145.5" r="1.5" fill="#D2D6DB"/>
</g>
<g clip-path="url(#clip18_1_698)">
<circle cx="1.50098" cy="154.5" r="1.5" fill="#D2D6DB"/>
<circle cx="10.501" cy="154.5" r="1.5" fill="#D2D6DB"/>
<circle cx="19.501" cy="154.5" r="1.5" fill="#D2D6DB"/>
<circle cx="28.501" cy="154.5" r="1.5" fill="#D2D6DB"/>
<circle cx="37.501" cy="154.5" r="1.5" fill="#D2D6DB"/>
<circle cx="46.501" cy="154.5" r="1.5" fill="#D2D6DB"/>
</g>
<g clip-path="url(#clip19_1_698)">
<circle cx="1.50098" cy="163.5" r="1.5" fill="#D2D6DB"/>
<circle cx="10.501" cy="163.5" r="1.5" fill="#D2D6DB"/>
<circle cx="19.501" cy="163.5" r="1.5" fill="#D2D6DB"/>
<circle cx="28.501" cy="163.5" r="1.5" fill="#D2D6DB"/>
<circle cx="37.501" cy="163.5" r="1.5" fill="#D2D6DB"/>
<circle cx="46.501" cy="163.5" r="1.5" fill="#D2D6DB"/>
</g>
<g clip-path="url(#clip20_1_698)">
<circle cx="1.50098" cy="172.5" r="1.5" fill="#D2D6DB"/>
<circle cx="10.501" cy="172.5" r="1.5" fill="#D2D6DB"/>
<circle cx="19.501" cy="172.5" r="1.5" fill="#D2D6DB"/>
<circle cx="28.501" cy="172.5" r="1.5" fill="#D2D6DB"/>
<circle cx="37.501" cy="172.5" r="1.5" fill="#D2D6DB"/>
<circle cx="46.501" cy="172.5" r="1.5" fill="#D2D6DB"/>
</g>
<g clip-path="url(#clip21_1_698)">
<circle cx="1.50098" cy="181.5" r="1.5" fill="#D2D6DB"/>
<circle cx="10.501" cy="181.5" r="1.5" fill="#D2D6DB"/>
<circle cx="19.501" cy="181.5" r="1.5" fill="#D2D6DB"/>
<circle cx="28.501" cy="181.5" r="1.5" fill="#D2D6DB"/>
<circle cx="37.501" cy="181.5" r="1.5" fill="#D2D6DB"/>
<circle cx="46.501" cy="181.5" r="1.5" fill="#D2D6DB"/>
</g>
<g clip-path="url(#clip22_1_698)">
<circle cx="1.50098" cy="190.5" r="1.5" fill="#D2D6DB"/>
<circle cx="10.501" cy="190.5" r="1.5" fill="#D2D6DB"/>
<circle cx="19.501" cy="190.5" r="1.5" fill="#D2D6DB"/>
<circle cx="28.501" cy="190.5" r="1.5" fill="#D2D6DB"/>
<circle cx="37.501" cy="190.5" r="1.5" fill="#D2D6DB"/>
<circle cx="46.501" cy="190.5" r="1.5" fill="#D2D6DB"/>
</g>
</g>
<defs>
<clipPath id="clip0_1_698">
<rect width="50" height="196" fill="white" transform="translate(0.000976562)"/>
</clipPath>
<clipPath id="clip1_1_698">
<rect width="50" height="9" fill="white" transform="translate(0.000976562)"/>
</clipPath>
<clipPath id="clip2_1_698">
<rect width="50" height="9" fill="white" transform="translate(0.000976562 9)"/>
</clipPath>
<clipPath id="clip3_1_698">
<rect width="50" height="9" fill="white" transform="translate(0.000976562 18)"/>
</clipPath>
<clipPath id="clip4_1_698">
<rect width="50" height="9" fill="white" transform="translate(0.000976562 27)"/>
</clipPath>
<clipPath id="clip5_1_698">
<rect width="50" height="9" fill="white" transform="translate(0.000976562 36)"/>
</clipPath>
<clipPath id="clip6_1_698">
<rect width="50" height="9" fill="white" transform="translate(0.000976562 45)"/>
</clipPath>
<clipPath id="clip7_1_698">
<rect width="50" height="9" fill="white" transform="translate(0.000976562 54)"/>
</clipPath>
<clipPath id="clip8_1_698">
<rect width="50" height="9" fill="white" transform="translate(0.000976562 63)"/>
</clipPath>
<clipPath id="clip9_1_698">
<rect width="50" height="9" fill="white" transform="translate(0.000976562 72)"/>
</clipPath>
<clipPath id="clip10_1_698">
<rect width="50" height="9" fill="white" transform="translate(0.000976562 81)"/>
</clipPath>
<clipPath id="clip11_1_698">
<rect width="50" height="9" fill="white" transform="translate(0.000976562 90)"/>
</clipPath>
<clipPath id="clip12_1_698">
<rect width="50" height="9" fill="white" transform="translate(0.000976562 99)"/>
</clipPath>
<clipPath id="clip13_1_698">
<rect width="50" height="9" fill="white" transform="translate(0.000976562 108)"/>
</clipPath>
<clipPath id="clip14_1_698">
<rect width="50" height="9" fill="white" transform="translate(0.000976562 117)"/>
</clipPath>
<clipPath id="clip15_1_698">
<rect width="50" height="9" fill="white" transform="translate(0.000976562 126)"/>
</clipPath>
<clipPath id="clip16_1_698">
<rect width="50" height="9" fill="white" transform="translate(0.000976562 135)"/>
</clipPath>
<clipPath id="clip17_1_698">
<rect width="50" height="9" fill="white" transform="translate(0.000976562 144)"/>
</clipPath>
<clipPath id="clip18_1_698">
<rect width="50" height="9" fill="white" transform="translate(0.000976562 153)"/>
</clipPath>
<clipPath id="clip19_1_698">
<rect width="50" height="9" fill="white" transform="translate(0.000976562 162)"/>
</clipPath>
<clipPath id="clip20_1_698">
<rect width="50" height="9" fill="white" transform="translate(0.000976562 171)"/>
</clipPath>
<clipPath id="clip21_1_698">
<rect width="50" height="9" fill="white" transform="translate(0.000976562 180)"/>
</clipPath>
<clipPath id="clip22_1_698">
<rect width="50" height="9" fill="white" transform="translate(0.000976562 189)"/>
</clipPath>
</defs>
</svg>
