<svg width="15" height="12" viewBox="0 0 15 12" fill="none" xmlns="http://www.w3.org/2000/svg">
<path d="M0.915692 0.000206632C0.738335 -0.00369422 0.56417 0.0477192 0.417409 0.147378C0.270648 0.247037 0.158584 0.390016 0.0967975 0.556308C0.0350114 0.722601 0.026573 0.903987 0.0726553 1.0753C0.118737 1.24661 0.21705 1.39923 0.353926 1.51209L5.57651 5.9862L0.353926 10.4587C0.259243 10.5283 0.179947 10.6167 0.121006 10.7183C0.0620647 10.82 0.0247477 10.9327 0.0113913 11.0495C-0.00196507 11.1662 0.00892721 11.2845 0.0433859 11.3968C0.0778446 11.5091 0.135127 11.6132 0.211647 11.7024C0.288167 11.7915 0.382275 11.8639 0.488078 11.915C0.593881 11.9661 0.7091 11.9948 0.826519 11.9994C0.943938 12.0039 1.06103 11.9842 1.17046 11.9414C1.27988 11.8986 1.37929 11.8336 1.46245 11.7506L7.44184 6.63464C7.53574 6.55451 7.61114 6.45505 7.66284 6.34296C7.71455 6.23086 7.74132 6.10886 7.74132 5.98541C7.74132 5.86197 7.71455 5.73996 7.66284 5.62787C7.61114 5.51578 7.53574 5.41622 7.44184 5.33609L1.46245 0.215205C1.31141 0.0810394 1.11767 0.00495992 0.915692 0.000206632Z" fill="#00CDE5"/>
<path d="M7.91569 0.000206632C7.73834 -0.00369422 7.56417 0.0477192 7.41741 0.147378C7.27065 0.247037 7.15858 0.390016 7.0968 0.556308C7.03501 0.722601 7.02657 0.903987 7.07266 1.0753C7.11874 1.24661 7.21705 1.39923 7.35393 1.51209L12.5765 5.9862L7.35393 10.4587C7.25924 10.5283 7.17995 10.6167 7.12101 10.7183C7.06206 10.82 7.02475 10.9327 7.01139 11.0495C6.99803 11.1662 7.00893 11.2845 7.04339 11.3968C7.07784 11.5091 7.13513 11.6132 7.21165 11.7024C7.28817 11.7915 7.38227 11.8639 7.48808 11.915C7.59388 11.9661 7.7091 11.9948 7.82652 11.9994C7.94394 12.0039 8.06103 11.9842 8.17046 11.9414C8.27988 11.8986 8.37929 11.8336 8.46245 11.7506L14.4418 6.63464C14.5357 6.55451 14.6111 6.45505 14.6628 6.34296C14.7145 6.23086 14.7413 6.10886 14.7413 5.98541C14.7413 5.86197 14.7145 5.73996 14.6628 5.62787C14.6111 5.51578 14.5357 5.41622 14.4418 5.33609L8.46245 0.215205C8.31141 0.0810394 8.11767 0.00495992 7.91569 0.000206632Z" fill="#00CDE5"/>
</svg>
