<svg width="15" height="11" viewBox="0 0 15 11" fill="none" xmlns="http://www.w3.org/2000/svg">
<path d="M14.8685 0.97998L10.3193 5.49987L14.8685 10.0198C14.9508 9.84788 15.0007 9.65786 15.0007 9.45495V1.54479C15.0007 1.34186 14.9508 1.15187 14.8685 0.97998Z" fill="#00CDE5"/>
<path d="M13.683 0.226562H1.3197C1.11676 0.226562 0.926768 0.276455 0.754883 0.358691L6.56923 6.14374C7.08333 6.65784 7.91935 6.65784 8.43345 6.14374L14.2478 0.358691C14.0759 0.276455 13.8859 0.226562 13.683 0.226562Z" fill="#00CDE5"/>
<path d="M0.133105 0.97998C0.0508691 1.15187 0.000976562 1.34186 0.000976562 1.54479V9.45495C0.000976562 9.65789 0.0508691 9.84791 0.133105 10.0198L4.68229 5.49987L0.133105 0.97998Z" fill="#00CDE5"/>
<path d="M9.6986 6.12158L9.05486 6.76532C8.19825 7.62193 6.80439 7.62193 5.94778 6.76532L5.30407 6.12158L0.754883 10.6415C0.926768 10.7237 1.11676 10.7736 1.3197 10.7736H13.683C13.8859 10.7736 14.0759 10.7237 14.2478 10.6415L9.6986 6.12158Z" fill="#00CDE5"/>
</svg>
