<svg width="18" height="18" viewBox="0 0 18 18" fill="none" xmlns="http://www.w3.org/2000/svg">
<path d="M16.5088 8.08306H9.61885V1.19299C9.61885 0.717679 9.23296 0.331787 8.7575 0.331787C8.28219 0.331787 7.8963 0.717679 7.8963 1.19299V8.08306H1.00622C0.530912 8.08306 0.14502 8.46896 0.14502 8.94426C0.14502 9.41973 0.530912 9.80562 1.00622 9.80562H7.8963V16.6955C7.8963 17.171 8.28219 17.5569 8.7575 17.5569C9.23296 17.5569 9.61885 17.171 9.61885 16.6955V9.80562H16.5088C16.9842 9.80562 17.3701 9.41973 17.3701 8.94426C17.3701 8.46896 16.9842 8.08306 16.5088 8.08306Z" fill="white"/>
</svg>
