<svg width="248" height="28" viewBox="0 0 248 28" fill="none" xmlns="http://www.w3.org/2000/svg">
<path d="M15.9436 13.0357C15.9436 12.2102 15.2779 11.5444 14.4524 11.5444H10.418C9.5925 11.5444 8.92676 12.2102 8.92676 13.0357V20.3322C10.8707 20.2656 13.2807 19.9061 15.9436 19.3203V13.0357Z" fill="#00CDE5"/>
<path d="M28.0996 27.3882H35.1165V14.7925C33.106 15.9775 30.7226 17.1625 28.0996 18.2676V27.3882Z" fill="#00CDE5"/>
<path d="M8.92676 27.3886H15.9436V25.711L14.6255 24.02H15.9436V22.2891C13.4405 22.8882 11.0704 23.3276 8.92676 23.554V27.3886Z" fill="#00CDE5"/>
<path d="M18.4331 21.6371V24.0071H19.8711L18.4331 25.8579V27.3757H25.45V19.3203C24.5712 19.6532 23.6658 19.986 22.7471 20.2923C21.2958 20.7849 19.8578 21.2376 18.4331 21.6238V21.6371Z" fill="#00CDE5"/>
<path d="M25.4367 16.4837V9.90623H24.1984L25.4367 8.32178V7.92233C25.4367 7.15008 24.8109 6.5376 24.0519 6.5376H19.8178C19.0456 6.5376 18.4331 7.16339 18.4331 7.92233V18.694C20.0975 18.2546 21.8284 17.7353 23.5593 17.1361C24.1984 16.9231 24.8242 16.6968 25.4367 16.4704V16.4837Z" fill="#00CDE5"/>
<path d="M35.1033 1.79749C35.1033 0.8122 34.3044 0 33.3058 0H29.8839C28.8986 0 28.0864 0.798886 28.0864 1.79749V8.17526L29.4312 9.90618H28.0864V15.4451C30.8825 14.3001 33.2392 13.115 35.1033 12.0232V1.79749Z" fill="#00CDE5"/>
<path d="M41.9867 6.00537L38.1254 8.80147H40.1226C38.6314 11.3046 32.0805 14.9928 23.7854 17.8156C13.826 21.1975 5.1048 22.063 4.30592 19.7196C3.9331 18.6011 5.43767 16.9634 8.19383 15.1792V13.2087C2.70815 16.1512 -0.580601 19.187 0.0851366 21.1576C1.11037 24.18 11.163 23.501 22.5205 19.6397C31.8408 16.4708 39.1506 12.1435 40.9082 9.02782L42 10.4525V6.00537H41.9867Z" fill="#00CDE5"/>
<path d="M246.766 18.725L247.778 21.3739C247.007 21.9277 245.875 22.1926 244.719 22.1926C241.661 22.1926 239.879 20.6274 239.879 17.545V12.2231H237.88V9.33333H239.879V6.17871H243.636V9.33333H246.863V12.2231H243.636V17.4968C243.636 18.6045 244.238 19.2066 245.249 19.2066C245.803 19.2066 246.357 19.038 246.766 18.725Z" fill="white"/>
<path d="M230.646 8.85156C233.705 8.85156 236.017 10.6336 236.017 14.5829V21.9998H232.26V15.1608C232.26 13.0658 231.297 12.1025 229.635 12.1025C227.829 12.1025 226.529 13.2102 226.529 15.5943V21.9998H222.772V9.04421H226.36V10.5613C227.371 9.45359 228.889 8.85156 230.646 8.85156Z" fill="white"/>
<path d="M220.271 15.5702C220.271 15.8592 220.223 16.2685 220.198 16.5816H210.397C210.759 18.195 212.131 19.1823 214.106 19.1823C215.479 19.1823 216.466 18.773 217.357 17.9301L219.356 20.0974C218.152 21.47 216.345 22.1925 214.01 22.1925C209.531 22.1925 206.617 19.375 206.617 15.522C206.617 11.645 209.579 8.85156 213.528 8.85156C217.333 8.85156 220.271 11.4042 220.271 15.5702ZM213.552 11.6931C211.842 11.6931 210.614 12.7286 210.349 14.3902H216.731C216.466 12.7527 215.238 11.6931 213.552 11.6931Z" fill="white"/>
<path d="M200.52 9.04421H204.084V19.8325C204.084 24.6488 201.483 26.8642 196.811 26.8642C194.355 26.8642 191.971 26.2622 190.454 25.0822L191.947 22.3851C193.054 23.2761 194.861 23.8541 196.522 23.8541C199.171 23.8541 200.327 22.65 200.327 20.3142V19.7603C199.34 20.8439 197.919 21.3737 196.233 21.3737C192.645 21.3737 189.755 18.8934 189.755 15.1126C189.755 11.3319 192.645 8.85156 196.233 8.85156C198.039 8.85156 199.532 9.45359 200.52 10.7058V9.04421ZM196.98 18.2913C198.954 18.2913 200.375 17.015 200.375 15.1126C200.375 13.2102 198.954 11.9339 196.98 11.9339C195.005 11.9339 193.56 13.2102 193.56 15.1126C193.56 17.015 195.005 18.2913 196.98 18.2913Z" fill="white"/>
<path d="M185.258 21.9998L183.765 18.3877H175.939L174.446 21.9998H170.448L177.962 5.14307H181.815L189.352 21.9998H185.258ZM177.191 15.4257H182.537L179.864 8.97196L177.191 15.4257Z" fill="white"/>
<path d="M163.964 22.1925C161.773 22.1925 159.558 21.5905 158.354 20.7958L159.606 18.0987C160.762 18.8452 162.52 19.3509 164.109 19.3509C165.843 19.3509 166.493 18.8934 166.493 18.1709C166.493 16.0518 158.667 18.2191 158.667 13.0417C158.667 10.5854 160.882 8.85156 164.663 8.85156C166.445 8.85156 168.419 9.26094 169.648 9.98337L168.395 12.6564C167.119 11.9339 165.843 11.6931 164.663 11.6931C162.977 11.6931 162.255 12.2229 162.255 12.8972C162.255 15.1126 170.081 12.9694 170.081 18.0746C170.081 20.4827 167.841 22.1925 163.964 22.1925Z" fill="white"/>
<path d="M152.87 10.754C153.785 9.50175 155.327 8.85156 157.325 8.85156V12.3192C157.012 12.2952 156.771 12.2711 156.482 12.2711C154.411 12.2711 153.039 13.4029 153.039 15.8832V21.9998H149.282V9.04421H152.87V10.754Z" fill="white"/>
<path d="M146.781 15.5702C146.781 15.8592 146.733 16.2685 146.709 16.5816H136.908C137.269 18.195 138.642 19.1823 140.616 19.1823C141.989 19.1823 142.976 18.773 143.867 17.9301L145.866 20.0974C144.662 21.47 142.856 22.1925 140.52 22.1925C136.041 22.1925 133.127 19.375 133.127 15.522C133.127 11.645 136.089 8.85156 140.038 8.85156C143.843 8.85156 146.781 11.4042 146.781 15.5702ZM140.062 11.6931C138.353 11.6931 137.124 12.7286 136.86 14.3902H143.241C142.976 12.7527 141.748 11.6931 140.062 11.6931Z" fill="white"/>
<path d="M126.857 4.13184H130.613V22H127.025V20.507C126.086 21.6388 124.714 22.1926 122.98 22.1926C119.319 22.1926 116.502 19.5919 116.502 15.5222C116.502 11.4525 119.319 8.85173 122.98 8.85173C124.569 8.85173 125.918 9.35743 126.857 10.417V4.13184ZM123.63 19.1103C125.484 19.1103 126.929 17.7617 126.929 15.5222C126.929 13.2826 125.484 11.9341 123.63 11.9341C121.752 11.9341 120.307 13.2826 120.307 15.5222C120.307 17.7617 121.752 19.1103 123.63 19.1103Z" fill="white"/>
<path d="M110.183 4.13184H113.94V22H110.352V20.507C109.413 21.6388 108.04 22.1926 106.306 22.1926C102.646 22.1926 99.8286 19.5919 99.8286 15.5222C99.8286 11.4525 102.646 8.85173 106.306 8.85173C107.896 8.85173 109.244 9.35743 110.183 10.417V4.13184ZM106.957 19.1103C108.811 19.1103 110.256 17.7617 110.256 15.5222C110.256 13.2826 108.811 11.9341 106.957 11.9341C105.078 11.9341 103.633 13.2826 103.633 15.5222C103.633 17.7617 105.078 19.1103 106.957 19.1103Z" fill="white"/>
<path d="M90.9654 8.85156C94.9147 8.85156 97.2024 10.6817 97.2024 14.6069V21.9998H93.6866V20.3864C92.9882 21.5664 91.6397 22.1925 89.7373 22.1925C86.7031 22.1925 84.897 20.5068 84.897 18.2673C84.897 15.9796 86.5104 14.3902 90.4597 14.3902H93.4458C93.4458 12.7768 92.4825 11.8376 90.4597 11.8376C89.0871 11.8376 87.6663 12.2952 86.7271 13.0417L85.3786 10.4168C86.7994 9.40543 88.8944 8.85156 90.9654 8.85156ZM90.6764 19.664C91.9287 19.664 93.0123 19.086 93.4458 17.906V16.5816H90.8691C89.1112 16.5816 88.5573 17.2318 88.5573 18.0987C88.5573 19.0379 89.352 19.664 90.6764 19.664Z" fill="white"/>
<path d="M76.9648 8.85173C80.0231 8.85173 82.3349 10.6337 82.3349 14.583V22H78.5783V15.161C78.5783 13.0659 77.615 12.1027 75.9534 12.1027C74.1474 12.1027 72.847 13.2104 72.847 15.5944V22H69.0903V4.13184H72.847V10.3929C73.8584 9.38151 75.3033 8.85173 76.9648 8.85173Z" fill="white"/>
<path d="M59.5374 22.2892C56.8644 22.2892 54.1673 21.4945 52.6743 20.3386L53.9988 17.4007C55.4196 18.4362 57.5387 19.1587 59.5615 19.1587C61.8733 19.1587 62.8125 18.3881 62.8125 17.3526C62.8125 14.198 53.0115 16.3652 53.0115 10.1042C53.0115 7.23852 55.3232 4.85449 60.1154 4.85449C62.2345 4.85449 64.4018 5.36019 65.9671 6.34752L64.763 9.30949C63.1977 8.41849 61.5843 7.98503 60.0913 7.98503C57.7795 7.98503 56.8885 8.85195 56.8885 9.91152C56.8885 13.018 66.6895 10.8748 66.6895 17.0636C66.6895 19.8811 64.3536 22.2892 59.5374 22.2892Z" fill="white"/>
</svg>
