<svg width="347" height="40" viewBox="0 0 347 40" fill="none" xmlns="http://www.w3.org/2000/svg">
<path d="M21.3828 17.478C21.3828 16.3711 20.4902 15.4785 19.3834 15.4785H13.9741C12.8672 15.4785 11.9746 16.3711 11.9746 17.478V27.2611C14.5811 27.1719 17.8124 26.6898 21.3828 25.9043V17.478Z" fill="#00CDE5"/>
<path d="M37.6816 36.7224H47.0899V19.834C44.3942 21.4229 41.1986 23.0117 37.6816 24.4935V36.7224Z" fill="#00CDE5"/>
<path d="M11.9746 36.7227H21.3828V34.4733L19.6154 32.2061H21.3828V29.8853C18.0266 30.6886 14.8489 31.2777 11.9746 31.5812V36.7227Z" fill="#00CDE5"/>
<path d="M24.7207 29.0106V32.1883H26.6488L24.7207 34.6698V36.705H34.1289V25.9043C32.9507 26.3506 31.7367 26.7969 30.5049 27.2075C28.559 27.8681 26.6309 28.475 24.7207 28.9928V29.0106Z" fill="#00CDE5"/>
<path d="M34.1111 22.1014V13.2823H32.4508L34.1111 11.1579V10.6223C34.1111 9.58684 33.272 8.76562 32.2544 8.76562H26.5774C25.5419 8.76562 24.7207 9.60469 24.7207 10.6223V25.0649C26.9523 24.4758 29.2731 23.7795 31.5939 22.9762C32.4508 22.6905 33.2899 22.387 34.1111 22.0835V22.1014Z" fill="#00CDE5"/>
<path d="M47.0723 2.41008C47.0723 1.089 46.0011 0 44.6622 0H40.0741C38.7531 0 37.6641 1.07115 37.6641 2.41008V10.9614L39.4672 13.2822H37.6641V20.7088C41.4131 19.1735 44.573 17.5846 47.0723 16.1207V2.41008Z" fill="#00CDE5"/>
<path d="M56.3016 8.05176L51.1244 11.8008H53.8023C51.8028 15.157 43.0194 20.1021 31.8973 23.8869C18.5437 28.4214 6.85038 29.5818 5.77923 26.4398C5.27936 24.9402 7.29669 22.7443 10.9921 20.3521V17.7099C3.63694 21.6553 -0.772611 25.7257 0.120011 28.3678C1.49465 32.4203 14.9732 31.5098 30.2014 26.3326C42.6981 22.0838 52.499 16.2817 54.8556 12.1043L56.3195 14.0145V8.05176H56.3016Z" fill="#00CDE5"/>
<path d="M345.512 28.317L346.958 32.1048C345.856 32.8968 344.238 33.2756 342.585 33.2756C338.212 33.2756 335.664 31.0373 335.664 26.6297V19.0196H332.806V14.8874H335.664V10.3765H341.036V14.8874H345.65V19.0196H341.036V26.5608C341.036 28.1448 341.896 29.0057 343.343 29.0057C344.135 29.0057 344.927 28.7646 345.512 28.317Z" fill="#2B2B5E"/>
<path d="M322.461 14.1987C326.835 14.1987 330.14 16.7469 330.14 22.3942V33.0001H324.768V23.2206C324.768 20.2248 323.391 18.8474 321.015 18.8474C318.432 18.8474 316.573 20.4314 316.573 23.8405V33.0001H311.201V14.4742H316.332V16.6436C317.778 15.0596 319.948 14.1987 322.461 14.1987Z" fill="#2B2B5E"/>
<path d="M307.625 23.806C307.625 24.2193 307.556 24.8046 307.522 25.2523H293.507C294.023 27.5594 295.986 28.9713 298.81 28.9713C300.773 28.9713 302.184 28.3859 303.458 27.1806L306.317 30.2798C304.595 32.2426 302.012 33.2756 298.672 33.2756C292.267 33.2756 288.101 29.2467 288.101 23.7372C288.101 18.1932 292.336 14.1987 297.983 14.1987C303.424 14.1987 307.625 17.8488 307.625 23.806ZM298.018 18.262C295.573 18.262 293.817 19.7427 293.438 22.1187H302.563C302.184 19.7772 300.428 18.262 298.018 18.262Z" fill="#2B2B5E"/>
<path d="M279.382 14.4742H284.478V29.901C284.478 36.7879 280.759 39.9559 274.079 39.9559C270.566 39.9559 267.157 39.0951 264.988 37.4078L267.123 33.5511C268.707 34.8252 271.289 35.6516 273.665 35.6516C277.453 35.6516 279.106 33.9299 279.106 30.5897V29.7977C277.694 31.3473 275.663 32.1048 273.252 32.1048C268.121 32.1048 263.989 28.558 263.989 23.1518C263.989 17.7455 268.121 14.1987 273.252 14.1987C275.835 14.1987 277.97 15.0596 279.382 16.8502V14.4742ZM274.32 27.6972C277.143 27.6972 279.175 25.8721 279.175 23.1518C279.175 20.4314 277.143 18.6064 274.32 18.6064C271.496 18.6064 269.43 20.4314 269.43 23.1518C269.43 25.8721 271.496 27.6972 274.32 27.6972Z" fill="#2B2B5E"/>
<path d="M257.559 32.9999L255.424 27.8346H244.233L242.098 32.9999H236.382L247.125 8.89551H252.635L263.413 32.9999H257.559ZM246.024 23.5992H253.668L249.846 14.3706L246.024 23.5992Z" fill="#2B2B5E"/>
<path d="M227.11 33.2756C223.977 33.2756 220.809 32.4147 219.087 31.2784L220.878 27.4217C222.53 28.4892 225.044 29.2123 227.317 29.2123C229.796 29.2123 230.726 28.558 230.726 27.525C230.726 24.4947 219.535 27.5939 219.535 20.1904C219.535 16.678 222.703 14.1987 228.109 14.1987C230.657 14.1987 233.481 14.7841 235.237 15.8172L233.446 19.6394C231.621 18.6064 229.796 18.262 228.109 18.262C225.698 18.262 224.665 19.0196 224.665 19.9838C224.665 23.1518 235.857 20.0871 235.857 27.3873C235.857 30.8307 232.654 33.2756 227.11 33.2756Z" fill="#2B2B5E"/>
<path d="M211.245 16.9191C212.554 15.1285 214.757 14.1987 217.615 14.1987V19.1573C217.168 19.1229 216.823 19.0885 216.41 19.0885C213.449 19.0885 211.486 20.7069 211.486 24.2537V33.0001H206.114V14.4742H211.245V16.9191Z" fill="#2B2B5E"/>
<path d="M202.538 23.806C202.538 24.2193 202.469 24.8046 202.435 25.2523H188.42C188.936 27.5594 190.899 28.9713 193.723 28.9713C195.686 28.9713 197.097 28.3859 198.372 27.1806L201.23 30.2798C199.508 32.2426 196.925 33.2756 193.585 33.2756C187.18 33.2756 183.014 29.2467 183.014 23.7372C183.014 18.1932 187.249 14.1987 192.896 14.1987C198.337 14.1987 202.538 17.8488 202.538 23.806ZM192.931 18.262C190.486 18.262 188.73 19.7427 188.351 22.1187H197.476C197.098 19.7772 195.341 18.262 192.931 18.262Z" fill="#2B2B5E"/>
<path d="M174.047 7.44922H179.419V32.9998H174.288V30.8649C172.945 32.4833 170.982 33.2753 168.503 33.2753C163.269 33.2753 159.24 29.5564 159.24 23.7369C159.24 17.9174 163.269 14.1984 168.503 14.1984C170.776 14.1984 172.704 14.9216 174.047 16.4367V7.44922ZM169.433 28.8677C172.084 28.8677 174.15 26.9393 174.15 23.7369C174.15 20.5344 172.084 18.6061 169.433 18.6061C166.747 18.6061 164.681 20.5344 164.681 23.7369C164.681 26.9393 166.747 28.8677 169.433 28.8677Z" fill="#2B2B5E"/>
<path d="M150.205 7.44922H155.577V32.9998H150.446V30.8649C149.103 32.4833 147.141 33.2753 144.661 33.2753C139.427 33.2753 135.398 29.5564 135.398 23.7369C135.398 17.9174 139.427 14.1984 144.661 14.1984C146.934 14.1984 148.862 14.9216 150.205 16.4367V7.44922ZM145.591 28.8677C148.243 28.8677 150.309 26.9393 150.309 23.7369C150.309 20.5344 148.243 18.6061 145.591 18.6061C142.905 18.6061 140.839 20.5344 140.839 23.7369C140.839 26.9393 142.905 28.8677 145.591 28.8677Z" fill="#2B2B5E"/>
<path d="M122.724 14.1987C128.372 14.1987 131.643 16.8158 131.643 22.4286V33.0001H126.616V30.693C125.617 32.3803 123.689 33.2756 120.968 33.2756C116.629 33.2756 114.047 30.8652 114.047 27.6627C114.047 24.3914 116.354 22.1187 122.001 22.1187H126.271C126.271 19.8116 124.894 18.4686 122.001 18.4686C120.039 18.4686 118.007 19.1229 116.664 20.1904L114.736 16.437C116.767 14.9907 119.763 14.1987 122.724 14.1987ZM122.311 29.6599C124.102 29.6599 125.651 28.8335 126.271 27.1462V25.2523H122.587C120.073 25.2523 119.281 26.182 119.281 27.4217C119.281 28.7646 120.417 29.6599 122.311 29.6599Z" fill="#2B2B5E"/>
<path d="M102.705 14.1984C107.078 14.1984 110.383 16.7466 110.383 22.3939V32.9998H105.012V23.2204C105.012 20.2245 103.634 18.8471 101.258 18.8471C98.6756 18.8471 96.8162 20.4311 96.8162 23.8402V32.9998H91.4443V7.44922H96.8162V16.4023C98.2624 14.956 100.329 14.1984 102.705 14.1984Z" fill="#2B2B5E"/>
<path d="M77.7836 33.4132C73.9614 33.4132 70.1047 32.2769 67.9697 30.624L69.8636 26.4229C71.8953 27.9036 74.9256 28.9367 77.8181 28.9367C81.1238 28.9367 82.4668 27.8348 82.4668 26.3541C82.4668 21.8431 68.4518 24.9422 68.4518 15.9892C68.4518 11.8915 71.7576 8.48242 78.6101 8.48242C81.6403 8.48242 84.7395 9.20555 86.9777 10.6174L85.256 14.8529C83.0177 13.5788 80.7106 12.9589 78.5756 12.9589C75.2699 12.9589 73.9958 14.1986 73.9958 15.7137C73.9958 20.1558 88.0108 17.0911 88.0108 25.9409C88.0108 29.9697 84.6706 33.4132 77.7836 33.4132Z" fill="#2B2B5E"/>
</svg>
