<svg width="242" height="163" viewBox="0 0 242 163" fill="none" xmlns="http://www.w3.org/2000/svg">
<path d="M239.497 129.894L207.961 161.432H4L35.5698 129.894L4 98.356H207.961L239.497 129.894Z" stroke="#00CDE5" stroke-width="3" stroke-miterlimit="10"/>
<path d="M121.987 114.758C159.535 114.758 189.974 121.538 189.974 129.894C189.974 138.249 159.535 145.029 121.987 145.029C84.4392 145.029 54 138.249 54 129.894C54.0171 121.538 84.4563 114.758 121.987 114.758Z" fill="#F6F6F8"/>
<path d="M121.967 129.89C157.856 129.89 186.934 100.826 186.934 64.9368C186.951 29.0808 157.856 0 121.967 0C86.0944 0 57 29.0808 57 64.9368C57 100.826 86.0944 129.89 121.967 129.89Z" fill="#00CDE5"/>
<path d="M117.077 67.1085V63.496C118.133 63.4366 119.145 63.273 120.09 63.0129C121.228 62.6933 122.232 62.225 123.067 61.608C123.916 60.9836 124.595 60.1734 125.09 59.2071C125.578 58.2408 125.829 57.0961 125.829 55.8102C125.829 54.5243 125.614 53.5059 125.179 52.6363C124.75 51.7666 124.115 51.0159 123.296 50.4138C122.505 49.834 121.553 49.336 120.445 48.9495C119.374 48.5704 118.163 48.2359 116.863 47.946V40.5649C117.306 40.6095 117.735 40.6764 118.141 40.7805C118.746 40.9291 119.308 41.1224 119.825 41.3528C120.342 41.5907 120.807 41.8434 121.198 42.1259C121.59 42.4009 121.907 42.6759 122.166 42.9509L122.72 43.5605L124.861 39.7919L124.477 39.4722C123.443 38.5951 122.247 37.889 120.932 37.3687C119.773 36.9078 118.473 36.6179 117.077 36.499V32.8419H114.323V36.5139C113.304 36.6179 112.344 36.8335 111.457 37.1457C110.401 37.5248 109.471 38.0674 108.695 38.7438C107.912 39.4351 107.3 40.275 106.864 41.2488C106.428 42.2151 106.207 43.3375 106.207 44.5639C106.207 45.6492 106.391 46.608 106.76 47.4034C107.13 48.2061 107.684 48.8974 108.407 49.4549C109.101 49.9901 109.973 50.4584 110.992 50.83C111.982 51.1942 113.134 51.5436 114.411 51.8484L114.5 51.8707V59.3112C113.917 59.2294 113.355 59.1105 112.816 58.9544C112.07 58.7388 111.361 58.4787 110.719 58.1814C110.084 57.8915 109.515 57.5644 109.028 57.2151C108.54 56.8657 108.127 56.5238 107.794 56.1893L107.24 55.6244L105.084 59.4822L105.468 59.8018C108.008 61.9053 110.985 63.1318 114.315 63.444V67.116H117.07L117.077 67.1085ZM116.863 52.4876C117.439 52.6586 117.964 52.8295 118.429 53.0079C119.064 53.2532 119.596 53.5357 120.024 53.8479C120.423 54.1452 120.733 54.4797 120.94 54.8439C121.139 55.1933 121.235 55.6318 121.235 56.1447C121.235 57.2299 120.851 58.0178 120.054 58.553C119.3 59.0585 118.229 59.3409 116.871 59.4078V52.495L116.863 52.4876ZM113.06 46.9499C112.484 46.7418 112.019 46.504 111.664 46.2289C111.339 45.9762 111.095 45.6863 110.94 45.337C110.778 44.9876 110.697 44.5565 110.697 44.051C110.697 43.003 111.022 42.2002 111.701 41.5981C112.299 41.0629 113.237 40.721 114.5 40.5798V47.3959C113.968 47.2473 113.488 47.0986 113.067 46.9425L113.06 46.9499Z" fill="white"/>
<path d="M160.279 81.2537H152.739V74.9727C152.739 74.0139 151.971 73.2408 151.018 73.2408H123.324C133.102 69.9703 140.177 60.6789 140.177 49.7522C140.177 36.1051 129.144 25 115.592 25C102.041 25 91 36.1051 91 49.7522C91 60.6789 98.0749 69.9703 107.853 73.2408H101.753C100.8 73.2408 100.032 74.0139 100.032 74.9727V82.1308C100.032 83.0897 100.8 83.8627 101.753 83.8627H109.293V89.3707H94.9953C94.0426 89.3707 93.2746 90.1437 93.2746 91.1026V98.2607C93.2746 99.2195 94.0426 99.9926 94.9953 99.9926H144.261C145.214 99.9926 145.982 99.2195 145.982 98.2607V91.8756H160.279C161.232 91.8756 162 91.1026 162 90.1437V82.9856C162 82.0268 161.232 81.2537 160.279 81.2537ZM94.4488 49.7522C94.4488 38.0154 103.931 28.4713 115.592 28.4713C127.253 28.4713 136.736 38.0154 136.736 49.7522C136.736 61.4891 127.253 71.0332 115.592 71.0332C103.931 71.0332 94.4488 61.4817 94.4488 49.7522ZM105.526 92.8345H109.596V96.5213H105.526V92.8345ZM103.555 96.5287H99.4854V92.8419H103.555V96.5287ZM115.511 84.725H119.58V88.4118H115.511V84.725ZM113.539 88.4118H112.734V84.725H113.539V88.4118ZM122.379 76.7047V80.3915H118.31V76.7047H122.379ZM127.578 88.4118V84.725H131.647V88.4118H127.578ZM125.614 84.725V88.4118H121.545V84.725H125.614ZM133.612 88.4118V84.725H137.681V88.4118H133.612ZM139.653 84.725H143.722V88.4118H139.653V84.725ZM142.459 80.3989V76.7121H146.528V80.3989H142.459ZM140.487 80.3989H136.418V76.7121H140.487V80.3989ZM134.454 80.3989H130.385V76.7121H134.454V80.3989ZM128.42 80.3989H124.358V76.7121H128.42V80.3989ZM116.346 76.7047V80.3915H112.276V76.7047H116.346ZM110.312 80.3989H106.243V76.7121H110.312V80.3989ZM111.56 92.8345H115.622V96.5213H111.56V92.8345ZM117.594 92.8345H121.663V96.5213H117.594V92.8345ZM123.627 92.8345H127.696V96.5213H123.627V92.8345ZM129.661 92.8345H133.73V96.5213H129.661V92.8345ZM135.702 92.8345H139.771V96.5213H135.702V92.8345ZM145.686 84.725H149.756V88.4118H145.686V84.725ZM151.72 84.725H155.782V88.4118H151.72V84.725ZM149.29 80.3989H148.485V76.7121H149.29V80.3989ZM103.473 76.7047H104.278V80.3915H103.473V76.7047ZM96.716 92.8345H97.521V96.5213H96.716V92.8345ZM142.533 96.5287H141.728V92.8419H142.533V96.5287ZM158.559 88.4118H157.754V84.725H158.559V88.4118Z" fill="white"/>
</svg>
