<svg width="54" height="54" viewBox="0 0 54 54" fill="none" xmlns="http://www.w3.org/2000/svg">
<circle cx="27.0059" cy="27" r="27" fill="#F6F6F8"/>
<path d="M23.5164 17.0003C23.2208 16.9938 22.9305 17.0795 22.6859 17.2456C22.4413 17.4117 22.2545 17.65 22.1516 17.9272C22.0486 18.2043 22.0345 18.5066 22.1113 18.7922C22.1881 19.0777 22.352 19.3321 22.5801 19.5201L31.2844 26.977L22.5801 34.4312C22.4223 34.5472 22.2901 34.6945 22.1919 34.8639C22.0937 35.0333 22.0315 35.2212 22.0092 35.4158C21.987 35.6104 22.0051 35.8074 22.0625 35.9947C22.12 36.1819 22.2154 36.3553 22.343 36.5039C22.4705 36.6526 22.6274 36.7731 22.8037 36.8583C22.98 36.9435 23.1721 36.9914 23.3678 36.9989C23.5635 37.0065 23.7586 36.9737 23.941 36.9023C24.1234 36.8309 24.2891 36.7227 24.4277 36.5843L34.3933 28.0577C34.5498 27.9242 34.6755 27.7584 34.7616 27.5716C34.8478 27.3848 34.8924 27.1814 34.8924 26.9757C34.8924 26.7699 34.8478 26.5666 34.7616 26.3798C34.6755 26.193 34.5498 26.027 34.3933 25.8935L24.4277 17.3587C24.1759 17.1351 23.853 17.0083 23.5164 17.0003Z" fill="#2B2B5E"/>
</svg>
