<svg width="60" height="60" viewBox="0 0 60 60" fill="none" xmlns="http://www.w3.org/2000/svg">
<circle cx="30" cy="30" r="30" fill="#00CDE5"/>
<path d="M29.998 15C25.3133 15 21.502 18.8113 21.502 23.4961C21.502 28.1808 25.3133 31.9922 29.998 31.9922C34.6828 31.9922 38.4941 28.1808 38.4941 23.4961C38.4941 18.8113 34.6828 15 29.998 15ZM30.877 27.7395V28.7695H29.1191V27.8185L27.8722 27.7116L28.0224 25.9602L29.9509 26.1255C30.0159 26.1311 30.0711 26.131 30.1151 26.1252C30.5494 26.0681 30.877 25.6935 30.877 25.2538C30.877 24.7692 30.4827 24.3749 29.9981 24.3749C28.5442 24.3749 27.3614 23.1921 27.3614 21.7382C27.3614 21.1491 27.5515 20.5918 27.9112 20.1265C28.2229 19.7233 28.6458 19.4293 29.1192 19.2663V18.2227H30.877V19.2182L32.1732 19.4034L31.9246 21.1435L30.1279 20.8869C29.8045 20.8406 29.4878 20.9613 29.302 21.2017C29.1824 21.3563 29.1192 21.5419 29.1192 21.7383C29.1192 22.2229 29.5135 22.6172 29.9981 22.6172C31.452 22.6172 32.6348 23.8 32.6348 25.2539C32.6348 26.3859 31.9087 27.3737 30.877 27.7395Z" fill="white"/>
<path d="M44.4363 31.0736C43.6545 30.2613 42.3346 30.2765 41.5374 31.0737L37.3832 35.2279C37.2163 35.3949 37.0868 35.5947 36.9966 35.8129C36.4308 37.1805 35.0823 38.1453 33.5126 38.1453H27.6494V36.3875H33.5126C34.623 36.3875 35.5232 35.4873 35.5232 34.3769C35.5232 33.6565 35.1441 33.0249 34.5746 32.6699C33.1961 33.3605 31.6417 33.7499 29.9978 33.7499C27.2112 33.7499 24.6813 32.6322 22.8313 30.8221C21.6435 30.9496 20.5011 31.4723 19.612 32.3614L15 36.9756L23.0243 44.9999C24.4404 43.5838 26.361 42.7883 28.3637 42.7883H33.049C34.6543 42.7883 36.1934 42.1484 37.3254 41.0103L44.4088 33.889C45.1848 33.1131 45.1939 31.8608 44.4363 31.0736Z" fill="white"/>
</svg>
