<svg width="242" height="163" viewBox="0 0 242 163" fill="none" xmlns="http://www.w3.org/2000/svg">
<path d="M239.497 129.894L207.961 161.432H4L35.5698 129.894L4 98.356H207.961L239.497 129.894Z" stroke="#00CDE5" stroke-width="3" stroke-miterlimit="10"/>
<path d="M121.987 114.758C159.535 114.758 189.974 121.538 189.974 129.894C189.974 138.249 159.535 145.029 121.987 145.029C84.4392 145.029 54 138.249 54 129.894C54.0171 121.538 84.4563 114.758 121.987 114.758Z" fill="#F6F6F8"/>
<path d="M121.967 129.89C157.856 129.89 186.934 100.826 186.934 64.9368C186.951 29.0808 157.856 0 121.967 0C86.0944 0 57 29.0808 57 64.9368C57 100.826 86.0944 129.89 121.967 129.89Z" fill="#00CDE5"/>
<g clip-path="url(#clip0_44_160)">
<path d="M102.775 58.0293H133.456C134.298 58.0293 134.977 57.3537 134.977 56.5157C134.977 55.6777 134.298 55.0021 133.456 55.0021H102.775C101.933 55.0021 101.254 55.6842 101.254 56.5157C101.254 57.3472 101.933 58.0293 102.775 58.0293Z" fill="white"/>
<path d="M102.775 64.3501H133.456C134.298 64.3501 134.977 63.6745 134.977 62.8365C134.977 61.9985 134.298 61.3229 133.456 61.3229H102.775C101.933 61.3229 101.254 61.9985 101.254 62.8365C101.254 63.6745 101.933 64.3501 102.775 64.3501Z" fill="white"/>
<path d="M102.775 70.6775H133.456C134.298 70.6775 134.977 70.0019 134.977 69.1639C134.977 68.3259 134.298 67.6503 133.456 67.6503H102.775C101.933 67.6503 101.254 68.3324 101.254 69.1639C101.254 69.9954 101.933 70.6775 102.775 70.6775Z" fill="white"/>
<path d="M134.977 75.4848C134.977 74.6468 134.298 73.9712 133.456 73.9712H102.775C101.933 73.9712 101.254 74.6468 101.254 75.4848C101.254 76.3228 101.933 76.9985 102.775 76.9985H133.456C134.298 76.9985 134.977 76.3228 134.977 75.4848Z" fill="white"/>
<path d="M134.213 83.5726H121.608C120.766 83.5726 120.087 84.2482 120.087 85.0863C120.087 85.9243 120.766 86.5999 121.608 86.5999H134.213C135.055 86.5999 135.734 85.9243 135.734 85.0863C135.734 84.2482 135.055 83.5726 134.213 83.5726Z" fill="white"/>
<path d="M103.186 50.2403H119.76C120.603 50.2403 121.281 49.5647 121.281 48.7266C121.281 47.8886 120.603 47.213 119.76 47.213H103.186C102.344 47.213 101.665 47.8951 101.665 48.7266C101.665 49.5582 102.344 50.2403 103.186 50.2403Z" fill="white"/>
<path d="M162.988 48.9085L159.3 47.5898L160.116 45.3291C160.403 44.543 159.992 43.6725 159.195 43.3867L154.489 41.7042C154.11 41.5677 153.692 41.5872 153.327 41.7626C152.961 41.9315 152.681 42.2433 152.544 42.6201L151.584 45.2771L151.532 45.2576C150.742 44.9718 149.867 45.381 149.586 46.1736L148.229 49.9284C148.091 50.3052 148.111 50.721 148.281 51.0848C148.353 51.2407 148.457 51.3836 148.581 51.5005L141.485 71.1388V46.8947C141.485 46.8947 141.485 46.8752 141.485 46.8622C141.485 46.7712 141.479 46.6803 141.459 46.5958C141.44 46.5114 141.413 46.4269 141.381 46.3425C141.374 46.3165 141.361 46.297 141.348 46.271C141.322 46.2126 141.289 46.1541 141.257 46.0956C141.244 46.0761 141.231 46.0502 141.218 46.0307C141.165 45.9592 141.113 45.8878 141.048 45.8228L130.616 35.4417C130.551 35.3768 130.479 35.3183 130.407 35.2728C130.388 35.2599 130.368 35.2469 130.342 35.2339C130.283 35.1949 130.225 35.1689 130.159 35.1364C130.14 35.1234 130.114 35.1169 130.094 35.1039C129.924 35.039 129.748 35 129.565 35C129.559 35 129.546 35 129.539 35H98.4076C96.5275 35 95 36.5201 95 38.3911V90.6666C95 92.5375 96.5275 94.0576 98.4076 94.0576H136.674L136.713 94.5903C136.759 95.1945 137.164 95.7207 137.738 95.9155C137.901 95.9675 138.065 95.9935 138.228 95.9935C138.652 95.9935 139.07 95.8181 139.364 95.4868L144.214 90.0819C144.214 90.0819 144.214 90.0819 144.22 90.0819C144.586 89.913 144.867 89.6012 145.004 89.2244L157.479 54.6902C158.047 54.6317 158.556 54.2679 158.765 53.6963L159.75 50.9743L160.521 51.2472L156.499 62.3818C156.082 62.5312 155.736 62.8495 155.572 63.2978L153.751 68.3389C153.47 69.1249 153.875 69.9889 154.659 70.2748L155.187 70.4696C155.357 70.5281 155.533 70.5606 155.71 70.5606C155.932 70.5606 156.153 70.5151 156.356 70.4177C156.721 70.2488 157.009 69.937 157.146 69.5602L163.909 50.8444C164.196 50.0584 163.785 49.1879 162.988 48.902V48.9085ZM151.643 49.4412L151.936 48.6227L156.747 50.3442L156.454 51.1627L151.643 49.4412ZM154.894 45.0692L156.734 45.7253L156.434 46.5634L154.593 45.9072L154.894 45.0692ZM139.455 90.1923L139.357 88.8086L140.813 89.3283L139.899 90.3482L139.455 90.1923ZM131.06 40.1775L133.678 42.7825L136.296 45.3875H131.426C131.23 45.3875 131.067 45.2251 131.067 45.0302V40.184L131.06 40.1775ZM98.4076 91.0239C98.2117 91.0239 98.0485 90.8615 98.0485 90.6666V38.3911C98.0485 38.1962 98.2117 38.0338 98.4076 38.0338H128.018V45.0237C128.018 46.8947 129.546 48.4148 131.426 48.4148H138.45V79.376C138.45 79.428 138.463 79.48 138.463 79.532L136.106 86.0477C135.956 86.457 136.002 86.8857 136.185 87.2495L136.452 91.0368H98.4076V91.0239ZM142.66 86.7753L141.074 86.2101L139.488 85.6449L151.395 52.6764L154.567 53.8132L142.66 86.7818V86.7753Z" fill="white"/>
</g>
<defs>
<clipPath id="clip0_44_160">
<rect width="69" height="61" fill="white" transform="translate(95 35)"/>
</clipPath>
</defs>
</svg>
