<svg width="7" height="10" viewBox="0 0 7 10" fill="none" xmlns="http://www.w3.org/2000/svg">
<path d="M0.715565 0.000161403C0.577029 -0.0028856 0.440986 0.0372741 0.326349 0.115119C0.211712 0.192964 0.124178 0.304646 0.0759157 0.434539C0.0276538 0.564433 0.0210625 0.706116 0.0570579 0.839928C0.0930533 0.973741 0.169847 1.09296 0.276762 1.18111L4.35619 4.6759L0.276762 8.16945C0.202804 8.22381 0.140865 8.29282 0.0948252 8.37222C0.0487855 8.45163 0.0196367 8.53971 0.00920389 8.6309C-0.00122896 8.72209 0.00727914 8.81443 0.0341953 8.90218C0.0611114 8.98993 0.105855 9.07121 0.165626 9.14086C0.225397 9.21052 0.298906 9.26702 0.38155 9.30696C0.464194 9.34689 0.554193 9.36932 0.645911 9.37286C0.737628 9.37639 0.829088 9.36101 0.914563 9.32756C1.00004 9.29412 1.07769 9.24339 1.14265 9.17854L5.81322 5.1824C5.88657 5.11981 5.94546 5.04212 5.98585 4.95456C6.02624 4.867 6.04715 4.7717 6.04715 4.67528C6.04715 4.57886 6.02624 4.48356 5.98585 4.396C5.94546 4.30844 5.88657 4.23068 5.81322 4.16808L1.14265 0.168099C1.02466 0.0633009 0.873329 0.00387426 0.715565 0.000161403Z" fill="white"/>
</svg>
