<svg width="20" height="12" viewBox="0 0 20 12" fill="none" xmlns="http://www.w3.org/2000/svg">
<path d="M18.7918 6.67971H0.684159C0.306274 6.67971 0.000976562 6.37442 0.000976562 5.99653C0.000976562 5.61865 0.306274 5.31335 0.684159 5.31335H17.1415L12.9955 1.16728C12.7286 0.900414 12.7286 0.46702 12.9955 0.200151C13.2623 -0.0667171 13.6957 -0.0667171 13.9626 0.200151L19.2765 5.51403C19.4729 5.71045 19.5305 6.00294 19.4238 6.25913C19.317 6.51319 19.0672 6.67971 18.7918 6.67971Z" fill="white"/>
<path d="M13.4717 11.9998C13.2966 11.9998 13.1216 11.9336 12.9892 11.7991C12.7223 11.5322 12.7223 11.0988 12.9892 10.832L18.3095 5.51167C18.5764 5.24481 19.0098 5.24481 19.2766 5.51167C19.5435 5.77854 19.5435 6.21194 19.2766 6.47881L13.9563 11.7991C13.8218 11.9336 13.6468 11.9998 13.4717 11.9998Z" fill="white"/>
</svg>
