<svg width="18" height="18" viewBox="0 0 18 18" fill="none" xmlns="http://www.w3.org/2000/svg">
<path d="M17.7859 16.7197L12.6672 11.601C13.6587 10.3763 14.2557 8.82001 14.2557 7.12503C14.2557 3.19657 11.0592 9.15527e-05 7.13077 9.15527e-05C3.2023 9.15527e-05 0.00585938 3.19654 0.00585938 7.125C0.00585938 11.0535 3.20234 14.2499 7.1308 14.2499C8.82577 14.2499 10.382 13.653 11.6067 12.6615L16.7254 17.7802C16.8717 17.9264 17.0637 17.9999 17.2557 17.9999C17.4477 17.9999 17.6397 17.9264 17.786 17.7802C18.0792 17.4869 18.0792 17.0129 17.7859 16.7197ZM7.1308 12.7499C4.02882 12.7499 1.50586 10.227 1.50586 7.125C1.50586 4.02302 4.02882 1.50005 7.1308 1.50005C10.2328 1.50005 12.7557 4.02302 12.7557 7.125C12.7557 10.227 10.2327 12.7499 7.1308 12.7499Z" fill="#00CDE5"/>
</svg>
