<svg width="17" height="16" viewBox="0 0 17 16" fill="none" xmlns="http://www.w3.org/2000/svg">
<path d="M16.0423 14.9381L12.0833 11.0334C13.0674 9.86621 13.6603 8.36744 13.6603 6.73438C13.6603 3.02103 10.5974 0 6.83262 0C3.06778 0 0.00488281 3.02103 0.00488281 6.73438C0.00488281 10.4475 3.06778 13.4683 6.83262 13.4683C8.48828 13.4683 10.008 12.8836 11.1913 11.913L15.1504 15.8178C15.2736 15.9393 15.435 16 15.5964 16C15.7578 16 15.9192 15.9393 16.0424 15.8178C16.2887 15.5748 16.2887 15.181 16.0423 14.9381ZM1.2663 6.73438C1.2663 3.70705 3.76333 1.24414 6.83262 1.24414C9.90183 1.24414 12.3988 3.70705 12.3988 6.73438C12.3988 9.76146 9.90183 12.2241 6.83262 12.2241C3.76333 12.2241 1.2663 9.76146 1.2663 6.73438Z" fill="#2B2B5E"/>
</svg>
