<svg width="17" height="14" viewBox="0 0 17 14" fill="none" xmlns="http://www.w3.org/2000/svg">
<path d="M16.4677 5.87499L13.0395 8.91099L13.8491 13.199C13.8843 13.3865 13.7996 13.576 13.63 13.688C13.5343 13.7515 13.4204 13.7835 13.3064 13.7835C13.2189 13.7835 13.1309 13.7645 13.0505 13.726L8.81161 11.7015L4.57326 13.7255C4.38833 13.8145 4.16323 13.8 3.99372 13.6875C3.82421 13.5755 3.73945 13.386 3.77468 13.1985L4.58426 8.91049L1.15549 5.87499C1.00579 5.74199 0.951309 5.54299 1.01625 5.36249C1.08119 5.18199 1.25346 5.04949 1.46095 5.02199L6.19903 4.39699L8.31793 0.495993C8.50341 0.154493 9.11981 0.154493 9.30529 0.495993L11.4242 4.39699L16.1623 5.02199C16.3698 5.04949 16.542 5.18149 16.607 5.36249C16.6719 5.54349 16.6174 5.74149 16.4677 5.87499Z" fill="#00CDE5"/>
</svg>
