<svg width="60" height="60" viewBox="0 0 60 60" fill="none" xmlns="http://www.w3.org/2000/svg">
<circle cx="30.0059" cy="30" r="30" fill="#00CDE5"/>
<path fill-rule="evenodd" clip-rule="evenodd" d="M22.9593 21.3916C25.0398 19.557 27.7714 18.4419 30.7619 18.4419C37.2751 18.4419 42.5642 23.7309 42.5642 30.2442C42.5642 36.7574 37.2751 42.0465 30.7619 42.0465C27.7714 42.0465 25.0398 40.9314 22.9593 39.0967C22.4547 38.6507 21.6814 38.6979 21.2354 39.2042C20.7893 39.7088 20.8382 40.4805 21.3428 40.9265C23.8547 43.1437 27.1528 44.4884 30.7619 44.4884C38.623 44.4884 45.0061 38.1053 45.0061 30.2442C45.0061 22.383 38.623 16 30.7619 16C27.1528 16 23.8547 17.3447 21.3428 19.5619C20.8382 20.0079 20.7893 20.7795 21.2354 21.2842C21.6814 21.7905 22.4547 21.8377 22.9593 21.3916Z" fill="white"/>
<path fill-rule="evenodd" clip-rule="evenodd" d="M28.8896 23.0814V29.593C28.8896 29.917 29.0183 30.2279 29.2478 30.4558L34.4571 35.6651C34.9324 36.1421 35.7073 36.1421 36.1827 35.6651C36.6596 35.1898 36.6596 34.4149 36.1827 33.9395L31.3315 29.0868V23.0814C31.3315 22.4075 30.7845 21.8605 30.1106 21.8605C29.4366 21.8605 28.8896 22.4075 28.8896 23.0814Z" fill="white"/>
<path fill-rule="evenodd" clip-rule="evenodd" d="M11.2268 25.7674H20.9942C21.6682 25.7674 22.2152 25.2204 22.2152 24.5465C22.2152 23.8725 21.6682 23.3256 20.9942 23.3256H11.2268C10.5528 23.3256 10.0059 23.8725 10.0059 24.5465C10.0059 25.2204 10.5528 25.7674 11.2268 25.7674Z" fill="white"/>
<path fill-rule="evenodd" clip-rule="evenodd" d="M12.8547 31.4652H22.6222C23.2961 31.4652 23.8431 30.9182 23.8431 30.2442C23.8431 29.5703 23.2961 29.0233 22.6222 29.0233H12.8547C12.1808 29.0233 11.6338 29.5703 11.6338 30.2442C11.6338 30.9182 12.1808 31.4652 12.8547 31.4652Z" fill="white"/>
<path fill-rule="evenodd" clip-rule="evenodd" d="M14.4826 37.1628H24.2501C24.924 37.1628 25.471 36.6158 25.471 35.9419C25.471 35.2679 24.924 34.7209 24.2501 34.7209H14.4826C13.8087 34.7209 13.2617 35.2679 13.2617 35.9419C13.2617 36.6158 13.8087 37.1628 14.4826 37.1628Z" fill="white"/>
</svg>
