<svg width="250" height="273" viewBox="0 0 250 273" fill="none" xmlns="http://www.w3.org/2000/svg">
<g opacity="0.7">
<path fill-rule="evenodd" clip-rule="evenodd" d="M510.908 106.452C508.293 148.085 447.833 153.959 417.929 183.092C388.806 211.463 381.7 268.219 341.17 271.812C300.515 275.416 278.784 226.365 249.453 198.027C219.235 168.834 169.656 148.433 170.008 106.452C170.359 64.5178 215.208 38.3807 250.973 16.3947C277.963 -0.19675 309.48 0.667908 341.17 1.23321C371.987 1.78292 402.016 3.32432 428.201 19.5561C463.547 41.4667 513.512 64.9938 510.908 106.452Z" stroke="#E6E6ED"/>
<path fill-rule="evenodd" clip-rule="evenodd" d="M501.908 106.452C499.293 148.085 438.833 153.959 408.929 183.092C379.806 211.463 372.7 268.219 332.17 271.812C291.515 275.416 269.784 226.365 240.453 198.027C210.235 168.834 160.656 148.433 161.008 106.452C161.359 64.5178 206.208 38.3807 241.973 16.3947C268.963 -0.19675 300.48 0.667908 332.17 1.23321C362.987 1.78292 393.016 3.32432 419.201 19.5561C454.547 41.4667 504.512 64.9938 501.908 106.452Z" stroke="#E6E6ED"/>
<path fill-rule="evenodd" clip-rule="evenodd" d="M491.908 106.452C489.293 148.085 428.833 153.959 398.929 183.092C369.806 211.463 362.7 268.219 322.17 271.812C281.515 275.416 259.784 226.365 230.453 198.027C200.235 168.834 150.656 148.433 151.008 106.452C151.359 64.5178 196.208 38.3807 231.973 16.3947C258.963 -0.19675 290.48 0.667908 322.17 1.23321C352.987 1.78292 383.016 3.32432 409.201 19.5561C444.547 41.4667 494.512 64.9938 491.908 106.452Z" stroke="#E6E6ED"/>
<path fill-rule="evenodd" clip-rule="evenodd" d="M481.908 106.452C479.293 148.085 418.833 153.959 388.929 183.092C359.806 211.463 352.7 268.219 312.17 271.812C271.515 275.416 249.784 226.365 220.453 198.027C190.235 168.834 140.656 148.433 141.008 106.452C141.359 64.5178 186.208 38.3807 221.973 16.3947C248.963 -0.19675 280.48 0.667908 312.17 1.23321C342.987 1.78292 373.016 3.32432 399.201 19.5561C434.547 41.4667 484.512 64.9938 481.908 106.452Z" stroke="#E6E6ED"/>
<path fill-rule="evenodd" clip-rule="evenodd" d="M471.908 106.452C469.293 148.085 408.833 153.959 378.929 183.092C349.806 211.463 342.7 268.219 302.17 271.812C261.515 275.416 239.784 226.365 210.453 198.027C180.235 168.834 130.656 148.433 131.008 106.452C131.359 64.5178 176.208 38.3807 211.973 16.3947C238.963 -0.19675 270.48 0.667908 302.17 1.23321C332.987 1.78292 363.016 3.32432 389.201 19.5561C424.547 41.4667 474.512 64.9938 471.908 106.452Z" stroke="#E6E6ED"/>
<path fill-rule="evenodd" clip-rule="evenodd" d="M461.908 106.452C459.293 148.085 398.833 153.959 368.929 183.092C339.806 211.463 332.7 268.219 292.17 271.812C251.515 275.416 229.784 226.365 200.453 198.027C170.235 168.834 120.656 148.433 121.008 106.452C121.359 64.5178 166.208 38.3807 201.973 16.3947C228.963 -0.19675 260.48 0.667908 292.17 1.23321C322.987 1.78292 353.016 3.32432 379.201 19.5561C414.547 41.4667 464.512 64.9938 461.908 106.452Z" stroke="#E6E6ED"/>
<path fill-rule="evenodd" clip-rule="evenodd" d="M451.908 106.452C449.293 148.085 388.833 153.959 358.929 183.092C329.806 211.463 322.7 268.219 282.17 271.812C241.515 275.416 219.784 226.365 190.453 198.027C160.235 168.834 110.656 148.433 111.008 106.452C111.359 64.5178 156.208 38.3807 191.973 16.3947C218.963 -0.19675 250.48 0.667908 282.17 1.23321C312.987 1.78292 343.016 3.32432 369.201 19.5561C404.547 41.4667 454.512 64.9938 451.908 106.452Z" stroke="#E6E6ED"/>
<path fill-rule="evenodd" clip-rule="evenodd" d="M441.908 106.452C439.293 148.085 378.833 153.959 348.929 183.092C319.806 211.463 312.7 268.219 272.17 271.812C231.515 275.416 209.784 226.365 180.453 198.027C150.235 168.834 100.656 148.433 101.008 106.452C101.359 64.5178 146.208 38.3807 181.973 16.3947C208.963 -0.19675 240.48 0.667908 272.17 1.23321C302.987 1.78292 333.016 3.32432 359.201 19.5561C394.547 41.4667 444.512 64.9938 441.908 106.452Z" stroke="#E6E6ED"/>
<path fill-rule="evenodd" clip-rule="evenodd" d="M431.908 106.452C429.293 148.085 368.833 153.959 338.929 183.092C309.806 211.463 302.7 268.219 262.17 271.812C221.515 275.416 199.784 226.365 170.453 198.027C140.235 168.834 90.6562 148.433 91.0077 106.452C91.3588 64.5178 136.208 38.3807 171.973 16.3947C198.963 -0.19675 230.48 0.667908 262.17 1.23321C292.987 1.78292 323.016 3.32432 349.201 19.5561C384.547 41.4667 434.512 64.9938 431.908 106.452Z" stroke="#E6E6ED"/>
<path fill-rule="evenodd" clip-rule="evenodd" d="M421.908 106.452C419.293 148.085 358.833 153.959 328.929 183.092C299.806 211.463 292.7 268.219 252.17 271.812C211.515 275.416 189.784 226.365 160.453 198.027C130.235 168.834 80.6562 148.433 81.0077 106.452C81.3588 64.5178 126.208 38.3807 161.973 16.3947C188.963 -0.19675 220.48 0.667908 252.17 1.23321C282.987 1.78292 313.016 3.32432 339.201 19.5561C374.547 41.4667 424.512 64.9938 421.908 106.452Z" stroke="#E6E6ED"/>
<path fill-rule="evenodd" clip-rule="evenodd" d="M411.908 106.452C409.293 148.085 348.833 153.959 318.929 183.092C289.806 211.463 282.7 268.219 242.17 271.812C201.515 275.416 179.784 226.365 150.453 198.027C120.235 168.834 70.6562 148.433 71.0077 106.452C71.3588 64.5178 116.208 38.3807 151.973 16.3947C178.963 -0.19675 210.48 0.667908 242.17 1.23321C272.987 1.78292 303.016 3.32432 329.201 19.5561C364.547 41.4667 414.512 64.9938 411.908 106.452Z" stroke="#E6E6ED"/>
<path fill-rule="evenodd" clip-rule="evenodd" d="M401.908 106.452C399.293 148.085 338.833 153.959 308.929 183.092C279.806 211.463 272.7 268.219 232.17 271.812C191.515 275.416 169.784 226.365 140.453 198.027C110.235 168.834 60.6562 148.433 61.0077 106.452C61.3588 64.5178 106.208 38.3807 141.973 16.3947C168.963 -0.19675 200.48 0.667908 232.17 1.23321C262.987 1.78292 293.016 3.32432 319.201 19.5561C354.547 41.4667 404.512 64.9938 401.908 106.452Z" stroke="#E6E6ED"/>
<path fill-rule="evenodd" clip-rule="evenodd" d="M391.908 106.452C389.293 148.085 328.833 153.959 298.929 183.092C269.806 211.463 262.7 268.219 222.17 271.812C181.515 275.416 159.784 226.365 130.453 198.027C100.235 168.834 50.6562 148.433 51.0077 106.452C51.3588 64.5178 96.2079 38.3807 131.973 16.3947C158.963 -0.19675 190.48 0.667908 222.17 1.23321C252.987 1.78292 283.016 3.32432 309.201 19.5561C344.547 41.4667 394.512 64.9938 391.908 106.452Z" stroke="#E6E6ED"/>
<path fill-rule="evenodd" clip-rule="evenodd" d="M381.908 106.452C379.293 148.085 318.833 153.959 288.929 183.092C259.806 211.463 252.7 268.219 212.17 271.812C171.515 275.416 149.784 226.365 120.453 198.027C90.2351 168.834 40.6562 148.433 41.0077 106.452C41.3588 64.5178 86.2079 38.3807 121.973 16.3947C148.963 -0.19675 180.48 0.667908 212.17 1.23321C242.987 1.78292 273.016 3.32432 299.201 19.5561C334.547 41.4667 384.512 64.9938 381.908 106.452Z" stroke="#E6E6ED"/>
<path fill-rule="evenodd" clip-rule="evenodd" d="M371.908 106.452C369.293 148.085 308.833 153.959 278.929 183.092C249.806 211.463 242.7 268.219 202.17 271.812C161.515 275.416 139.784 226.365 110.453 198.027C80.2351 168.834 30.6562 148.433 31.0077 106.452C31.3588 64.5178 76.2079 38.3807 111.973 16.3947C138.963 -0.19675 170.48 0.667908 202.17 1.23321C232.987 1.78292 263.016 3.32432 289.201 19.5561C324.547 41.4667 374.512 64.9938 371.908 106.452Z" stroke="#E6E6ED"/>
<path fill-rule="evenodd" clip-rule="evenodd" d="M361.908 106.452C359.293 148.085 298.833 153.959 268.929 183.092C239.806 211.463 232.7 268.219 192.17 271.812C151.515 275.416 129.784 226.365 100.453 198.027C70.2351 168.834 20.6562 148.433 21.0077 106.452C21.3588 64.5178 66.2079 38.3807 101.973 16.3947C128.963 -0.19675 160.48 0.667908 192.17 1.23321C222.987 1.78292 253.016 3.32432 279.201 19.5561C314.547 41.4667 364.512 64.9938 361.908 106.452Z" stroke="#E6E6ED"/>
<path fill-rule="evenodd" clip-rule="evenodd" d="M351.908 106.452C349.293 148.085 288.833 153.959 258.929 183.092C229.806 211.463 222.7 268.219 182.17 271.812C141.515 275.416 119.784 226.365 90.4525 198.027C60.2351 168.834 10.6562 148.433 11.0077 106.452C11.3588 64.5178 56.2079 38.3807 91.9733 16.3947C118.963 -0.19675 150.48 0.667908 182.17 1.23321C212.987 1.78292 243.016 3.32432 269.201 19.5561C304.547 41.4667 354.512 64.9938 351.908 106.452Z" stroke="#E6E6ED"/>
<path fill-rule="evenodd" clip-rule="evenodd" d="M341.908 106.452C339.293 148.085 278.833 153.959 248.929 183.092C219.806 211.463 212.7 268.219 172.17 271.812C131.515 275.416 109.784 226.365 80.4525 198.027C50.2351 168.834 0.656236 148.433 1.00773 106.452C1.35883 64.5178 46.2079 38.3807 81.9733 16.3947C108.963 -0.19675 140.48 0.667908 172.17 1.23321C202.987 1.78292 233.016 3.32432 259.201 19.5561C294.547 41.4667 344.512 64.9938 341.908 106.452Z" stroke="#E6E6ED"/>
</g>
</svg>
