<svg width="266" height="273" viewBox="0 0 266 273" fill="none" xmlns="http://www.w3.org/2000/svg">
<g opacity="0.3">
<path fill-rule="evenodd" clip-rule="evenodd" d="M264.908 106.452C262.293 148.085 201.833 153.959 171.929 183.092C142.806 211.463 135.7 268.219 95.1702 271.812C54.5152 275.416 32.7843 226.365 3.45252 198.027C-26.7649 168.834 -76.3438 148.433 -75.9923 106.452C-75.6412 64.5178 -30.7921 38.3807 4.97328 16.3947C31.9631 -0.19675 63.4802 0.667908 95.1702 1.23321C125.987 1.78292 156.016 3.32432 182.201 19.5561C217.547 41.4667 267.512 64.9938 264.908 106.452Z" stroke="#00CDE5"/>
<path fill-rule="evenodd" clip-rule="evenodd" d="M255.908 106.452C253.293 148.085 192.833 153.959 162.929 183.092C133.806 211.463 126.7 268.219 86.1702 271.812C45.5152 275.416 23.7843 226.365 -5.54748 198.027C-35.7649 168.834 -85.3438 148.433 -84.9923 106.452C-84.6412 64.5178 -39.7921 38.3807 -4.02672 16.3947C22.9631 -0.19675 54.4802 0.667908 86.1702 1.23321C116.987 1.78292 147.016 3.32432 173.201 19.5561C208.547 41.4667 258.512 64.9938 255.908 106.452Z" stroke="#00CDE5"/>
<path fill-rule="evenodd" clip-rule="evenodd" d="M245.908 106.452C243.293 148.085 182.833 153.959 152.929 183.092C123.806 211.463 116.7 268.219 76.1702 271.812C35.5152 275.416 13.7843 226.365 -15.5475 198.027C-45.7649 168.834 -95.3438 148.433 -94.9923 106.452C-94.6412 64.5178 -49.7921 38.3807 -14.0267 16.3947C12.9631 -0.19675 44.4802 0.667908 76.1702 1.23321C106.987 1.78292 137.016 3.32432 163.201 19.5561C198.547 41.4667 248.512 64.9938 245.908 106.452Z" stroke="#00CDE5"/>
<path fill-rule="evenodd" clip-rule="evenodd" d="M235.908 106.452C233.293 148.085 172.833 153.959 142.929 183.092C113.806 211.463 106.7 268.219 66.1702 271.812C25.5152 275.416 3.78432 226.365 -25.5475 198.027C-55.7649 168.834 -105.344 148.433 -104.992 106.452C-104.641 64.5178 -59.7921 38.3807 -24.0267 16.3947C2.96305 -0.19675 34.4802 0.667908 66.1702 1.23321C96.9865 1.78292 127.016 3.32432 153.201 19.5561C188.547 41.4667 238.512 64.9938 235.908 106.452Z" stroke="#00CDE5"/>
<path fill-rule="evenodd" clip-rule="evenodd" d="M225.908 106.452C223.293 148.085 162.833 153.959 132.929 183.092C103.806 211.463 96.6997 268.219 56.1702 271.812C15.5152 275.416 -6.21568 226.365 -35.5475 198.027C-65.7649 168.834 -115.344 148.433 -114.992 106.452C-114.641 64.5178 -69.7921 38.3807 -34.0267 16.3947C-7.03695 -0.19675 24.4802 0.667908 56.1702 1.23321C86.9865 1.78292 117.016 3.32432 143.201 19.5561C178.547 41.4667 228.512 64.9938 225.908 106.452Z" stroke="#00CDE5"/>
<path fill-rule="evenodd" clip-rule="evenodd" d="M215.908 106.452C213.293 148.085 152.833 153.959 122.929 183.092C93.8062 211.463 86.6997 268.219 46.1702 271.812C5.51525 275.416 -16.2157 226.365 -45.5475 198.027C-75.7649 168.834 -125.344 148.433 -124.992 106.452C-124.641 64.5178 -79.7921 38.3807 -44.0267 16.3947C-17.0369 -0.19675 14.4802 0.667908 46.1702 1.23321C76.9865 1.78292 107.016 3.32432 133.201 19.5561C168.547 41.4667 218.512 64.9938 215.908 106.452Z" stroke="#00CDE5"/>
<path fill-rule="evenodd" clip-rule="evenodd" d="M205.908 106.452C203.293 148.085 142.833 153.959 112.929 183.092C83.8062 211.463 76.6997 268.219 36.1702 271.812C-4.48475 275.416 -26.2157 226.365 -55.5475 198.027C-85.7649 168.834 -135.344 148.433 -134.992 106.452C-134.641 64.5178 -89.7921 38.3807 -54.0267 16.3947C-27.0369 -0.19675 4.48023 0.667908 36.1702 1.23321C66.9865 1.78292 97.0158 3.32432 123.201 19.5561C158.547 41.4667 208.512 64.9938 205.908 106.452Z" stroke="#00CDE5"/>
<path fill-rule="evenodd" clip-rule="evenodd" d="M195.908 106.452C193.293 148.085 132.833 153.959 102.929 183.092C73.8062 211.463 66.6997 268.219 26.1702 271.812C-14.4848 275.416 -36.2157 226.365 -65.5475 198.027C-95.7649 168.834 -145.344 148.433 -144.992 106.452C-144.641 64.5178 -99.7921 38.3807 -64.0267 16.3947C-37.0369 -0.19675 -5.51977 0.667908 26.1702 1.23321C56.9865 1.78292 87.0158 3.32432 113.201 19.5561C148.547 41.4667 198.512 64.9938 195.908 106.452Z" stroke="#00CDE5"/>
<path fill-rule="evenodd" clip-rule="evenodd" d="M185.908 106.452C183.293 148.085 122.833 153.959 92.929 183.092C63.8062 211.463 56.6997 268.219 16.1702 271.812C-24.4848 275.416 -46.2157 226.365 -75.5475 198.027C-105.765 168.834 -155.344 148.433 -154.992 106.452C-154.641 64.5178 -109.792 38.3807 -74.0267 16.3947C-47.0369 -0.19675 -15.5198 0.667908 16.1702 1.23321C46.9865 1.78292 77.0158 3.32432 103.201 19.5561C138.547 41.4667 188.512 64.9938 185.908 106.452Z" stroke="#00CDE5"/>
<path fill-rule="evenodd" clip-rule="evenodd" d="M175.908 106.452C173.293 148.085 112.833 153.959 82.929 183.092C53.8062 211.463 46.6997 268.219 6.17025 271.812C-34.4848 275.416 -56.2157 226.365 -85.5475 198.027C-115.765 168.834 -165.344 148.433 -164.992 106.452C-164.641 64.5178 -119.792 38.3807 -84.0267 16.3947C-57.0369 -0.19675 -25.5198 0.667908 6.17024 1.23321C36.9865 1.78292 67.0158 3.32432 93.2008 19.5561C128.547 41.4667 178.512 64.9938 175.908 106.452Z" stroke="#00CDE5"/>
<path fill-rule="evenodd" clip-rule="evenodd" d="M165.908 106.452C163.293 148.085 102.833 153.959 72.929 183.092C43.8062 211.463 36.6997 268.219 -3.82975 271.812C-44.4848 275.416 -66.2157 226.365 -95.5475 198.027C-125.765 168.834 -175.344 148.433 -174.992 106.452C-174.641 64.5178 -129.792 38.3807 -94.0267 16.3947C-67.0369 -0.19675 -35.5198 0.667908 -3.82976 1.23321C26.9865 1.78292 57.0158 3.32432 83.2008 19.5561C118.547 41.4667 168.512 64.9938 165.908 106.452Z" stroke="#00CDE5"/>
<path fill-rule="evenodd" clip-rule="evenodd" d="M155.908 106.452C153.293 148.085 92.8327 153.959 62.929 183.092C33.8062 211.463 26.6997 268.219 -13.8298 271.812C-54.4848 275.416 -76.2157 226.365 -105.547 198.027C-135.765 168.834 -185.344 148.433 -184.992 106.452C-184.641 64.5178 -139.792 38.3807 -104.027 16.3947C-77.0369 -0.19675 -45.5198 0.667908 -13.8298 1.23321C16.9865 1.78292 47.0158 3.32432 73.2008 19.5561C108.547 41.4667 158.512 64.9938 155.908 106.452Z" stroke="#00CDE5"/>
<path fill-rule="evenodd" clip-rule="evenodd" d="M145.908 106.452C143.293 148.085 82.8327 153.959 52.929 183.092C23.8062 211.463 16.6997 268.219 -23.8298 271.812C-64.4848 275.416 -86.2157 226.365 -115.547 198.027C-145.765 168.834 -195.344 148.433 -194.992 106.452C-194.641 64.5178 -149.792 38.3807 -114.027 16.3947C-87.0369 -0.19675 -55.5198 0.667908 -23.8298 1.23321C6.9865 1.78292 37.0158 3.32432 63.2008 19.5561C98.5467 41.4667 148.512 64.9938 145.908 106.452Z" stroke="#00CDE5"/>
<path fill-rule="evenodd" clip-rule="evenodd" d="M135.908 106.452C133.293 148.085 72.8327 153.959 42.929 183.092C13.8062 211.463 6.69969 268.219 -33.8298 271.812C-74.4848 275.416 -96.2157 226.365 -125.547 198.027C-155.765 168.834 -205.344 148.433 -204.992 106.452C-204.641 64.5178 -159.792 38.3807 -124.027 16.3947C-97.0369 -0.19675 -65.5198 0.667908 -33.8298 1.23321C-3.0135 1.78292 27.0158 3.32432 53.2008 19.5561C88.5467 41.4667 138.512 64.9938 135.908 106.452Z" stroke="#00CDE5"/>
<path fill-rule="evenodd" clip-rule="evenodd" d="M125.908 106.452C123.293 148.085 62.8327 153.959 32.929 183.092C3.80625 211.463 -3.30031 268.219 -43.8298 271.812C-84.4848 275.416 -106.216 226.365 -135.547 198.027C-165.765 168.834 -215.344 148.433 -214.992 106.452C-214.641 64.5178 -169.792 38.3807 -134.027 16.3947C-107.037 -0.19675 -75.5198 0.667908 -43.8298 1.23321C-13.0135 1.78292 17.0158 3.32432 43.2008 19.5561C78.5467 41.4667 128.512 64.9938 125.908 106.452Z" stroke="#00CDE5"/>
<path fill-rule="evenodd" clip-rule="evenodd" d="M115.908 106.452C113.293 148.085 52.8327 153.959 22.929 183.092C-6.19375 211.463 -13.3003 268.219 -53.8298 271.812C-94.4848 275.416 -116.216 226.365 -145.547 198.027C-175.765 168.834 -225.344 148.433 -224.992 106.452C-224.641 64.5178 -179.792 38.3807 -144.027 16.3947C-117.037 -0.19675 -85.5198 0.667908 -53.8298 1.23321C-23.0135 1.78292 7.01583 3.32432 33.2008 19.5561C68.5467 41.4667 118.512 64.9938 115.908 106.452Z" stroke="#00CDE5"/>
<path fill-rule="evenodd" clip-rule="evenodd" d="M105.908 106.452C103.293 148.085 42.8327 153.959 12.929 183.092C-16.1938 211.463 -23.3003 268.219 -63.8298 271.812C-104.485 275.416 -126.216 226.365 -155.547 198.027C-185.765 168.834 -235.344 148.433 -234.992 106.452C-234.641 64.5178 -189.792 38.3807 -154.027 16.3947C-127.037 -0.19675 -95.5198 0.667908 -63.8298 1.23321C-33.0135 1.78292 -2.98417 3.32432 23.2008 19.5561C58.5467 41.4667 108.512 64.9938 105.908 106.452Z" stroke="#00CDE5"/>
<path fill-rule="evenodd" clip-rule="evenodd" d="M95.9081 106.452C93.293 148.085 32.8327 153.959 2.929 183.092C-26.1938 211.463 -33.3003 268.219 -73.8298 271.812C-114.485 275.416 -136.216 226.365 -165.547 198.027C-195.765 168.834 -245.344 148.433 -244.992 106.452C-244.641 64.5178 -199.792 38.3807 -164.027 16.3947C-137.037 -0.19675 -105.52 0.667908 -73.8298 1.23321C-43.0135 1.78292 -12.9842 3.32432 13.2008 19.5561C48.5467 41.4667 98.5121 64.9938 95.9081 106.452Z" stroke="#00CDE5"/>
</g>
</svg>
